<svg width="32" height="32" viewBox="0 0 32 32" fill="none" xmlns="http://www.w3.org/2000/svg">
<path d="M16.9672 0H15.0328C14.4679 0 14.0151 0.467615 14.0333 1.03224L14.9688 30.0322C14.9862 30.5717 15.4285 31 15.9683 31H16.0317C16.5715 31 17.0138 30.5717 17.0312 30.0322L17.9667 1.03224C17.9849 0.467615 17.5321 0 16.9672 0Z" fill="#FFB639"/>
<path d="M28 14V12C28 11.4477 27.5523 11 27 11L5 11C4.44772 11 4 11.4477 4 12V14C4 14.5523 4.44772 15 5 15L27 15C27.5523 15 28 14.5523 28 14Z" fill="#FFB639"/>
</svg>
