<svg width="370" height="58" viewBox="0 0 370 58" fill="none" xmlns="http://www.w3.org/2000/svg">
<path d="M21.8087 57.0207C16.5218 57.0207 12.02 55.8168 8.30341 53.4089C4.63918 51.0009 2.07422 47.7031 0.608529 43.5154L8.38193 38.9613C10.5805 45.1382 15.1346 48.2266 22.0443 48.2266C25.4468 48.2266 27.9856 47.5723 29.6606 46.2636C31.3881 44.9026 32.2518 43.149 32.2518 41.0028C32.2518 38.7519 31.3357 37.0507 29.5036 35.8991C27.6715 34.6951 24.426 33.3865 19.7672 31.9731C17.1499 31.1879 15.0299 30.4551 13.4072 29.7746C11.7844 29.0941 10.057 28.1519 8.22489 26.9479C6.44512 25.6916 5.1103 24.1474 4.22041 22.3153C3.33053 20.4831 2.88559 18.337 2.88559 15.8767C2.88559 11.0085 4.61301 7.16105 8.06785 4.33436C11.5227 1.45532 15.6842 0.015798 20.5524 0.015798C24.9495 0.015798 28.7969 1.08889 32.0947 3.23509C35.3925 5.38128 37.9313 8.33884 39.7111 12.1078L32.0947 16.5048C29.7915 11.3749 25.9441 8.80995 20.5524 8.80995C17.9351 8.80995 15.8413 9.43811 14.2709 10.6944C12.7005 11.8984 11.9153 13.5473 11.9153 15.6411C11.9153 17.6826 12.7005 19.3054 14.2709 20.5093C15.8936 21.6609 18.7988 22.8911 22.9865 24.1997C25.0804 24.8802 26.5984 25.4037 27.5406 25.7701C28.5352 26.0842 29.8962 26.6076 31.6236 27.3405C33.4034 28.0733 34.7382 28.8062 35.6281 29.539C36.518 30.2719 37.4602 31.1879 38.4548 32.2872C39.5017 33.3865 40.2346 34.6428 40.6533 36.0561C41.0721 37.4695 41.2815 39.066 41.2815 40.8458C41.2815 45.8187 39.4755 49.7708 35.8637 52.7022C32.3041 55.5812 27.6191 57.0207 21.8087 57.0207ZM56.5542 39.9821C57.1823 42.9658 58.6219 45.269 60.8727 46.8918C63.1236 48.4622 65.8718 49.2473 69.1173 49.2473C73.619 49.2473 76.9953 47.6246 79.2462 44.3792L86.2344 48.4622C82.3608 54.1679 76.6289 57.0207 69.0387 57.0207C62.6525 57.0207 57.4964 55.0839 53.5704 51.2103C49.6445 47.2844 47.6815 42.3377 47.6815 36.3702C47.6815 30.5074 49.6183 25.6131 53.4919 21.6871C57.3655 17.7088 62.3384 15.7196 68.4106 15.7196C74.1687 15.7196 78.8798 17.735 82.544 21.7656C86.2606 25.7963 88.1189 30.6906 88.1189 36.4487C88.1189 37.3386 88.0142 38.5164 87.8048 39.9821H56.5542ZM56.4757 33.0724H79.5603C78.9845 29.8793 77.6497 27.4714 75.5558 25.8486C73.5143 24.2259 71.1064 23.4145 68.3321 23.4145C65.1913 23.4145 62.574 24.2782 60.4801 26.0057C58.3863 27.7331 57.0515 30.0887 56.4757 33.0724ZM104.356 23.336C106.502 18.4678 110.533 16.0337 116.448 16.0337V25.2205C113.202 25.0111 110.376 25.7963 107.968 27.576C105.56 29.3035 104.356 32.1825 104.356 36.2132V56H95.8758V16.7404H104.356V23.336ZM165.88 15.7196C170.33 15.7196 173.915 17.1592 176.637 20.0382C179.359 22.9172 180.72 26.7909 180.72 31.659V56H172.24V32.2087C172.24 29.4867 171.56 27.3928 170.199 25.9271C168.838 24.4091 166.979 23.6501 164.624 23.6501C162.006 23.6501 159.913 24.5138 158.342 26.2412C156.824 27.9686 156.065 30.5598 156.065 34.0146V56H147.585V32.2087C147.585 29.4867 146.931 27.3928 145.622 25.9271C144.366 24.4091 142.56 23.6501 140.204 23.6501C137.639 23.6501 135.546 24.54 133.923 26.3197C132.3 28.0472 131.489 30.6121 131.489 34.0146V56H123.009V16.7404H131.489V21.4515C134.001 17.6303 137.744 15.7196 142.717 15.7196C147.742 15.7196 151.459 17.7873 153.867 21.9227C156.484 17.7873 160.488 15.7196 165.88 15.7196ZM208.622 57.0207C202.864 57.0207 197.969 55.0316 193.939 51.0533C189.908 47.075 187.893 42.1806 187.893 36.3702C187.893 30.5598 189.908 25.6654 193.939 21.6871C197.969 17.7088 202.864 15.7196 208.622 15.7196C214.432 15.7196 219.326 17.7088 223.305 21.6871C227.335 25.6654 229.351 30.5598 229.351 36.3702C229.351 42.1806 227.335 47.075 223.305 51.0533C219.326 55.0316 214.432 57.0207 208.622 57.0207ZM199.906 45.2429C202.262 47.5984 205.167 48.7762 208.622 48.7762C212.076 48.7762 214.982 47.5984 217.337 45.2429C219.693 42.8873 220.871 39.9297 220.871 36.3702C220.871 32.8107 219.693 29.8531 217.337 27.4975C214.982 25.1419 212.076 23.9642 208.622 23.9642C205.167 23.9642 202.262 25.1419 199.906 27.4975C197.55 29.8531 196.373 32.8107 196.373 36.3702C196.373 39.9297 197.55 42.8873 199.906 45.2429ZM257.964 15.7196C262.466 15.7196 266.104 17.1592 268.879 20.0382C271.653 22.9172 273.04 26.8694 273.04 31.8946V56H264.56V32.7583C264.56 29.8269 263.775 27.576 262.204 26.0057C260.634 24.4353 258.488 23.6501 255.766 23.6501C252.782 23.6501 250.374 24.5923 248.542 26.4768C246.71 28.3089 245.794 31.1356 245.794 34.9569V56H237.314V16.7404H245.794V21.7656C248.359 17.735 252.416 15.7196 257.964 15.7196ZM318.742 1.03655V9.67366H303.274V56H294.244V9.67366H278.697V1.03655H318.742ZM339.691 56L320.611 1.03655H330.504L345.109 45.0858L359.792 1.03655H369.607L350.526 56H339.691Z" fill="#D89118"/>
</svg>
