<svg width="149" height="24" viewBox="0 0 149 24" fill="none" xmlns="http://www.w3.org/2000/svg">
<path d="M9.05859 23.416C6.90392 23.416 5.06925 22.9253 3.55459 21.944C2.06125 20.9627 1.01592 19.6187 0.418587 17.912L3.58659 16.056C4.48259 18.5733 6.33859 19.832 9.15459 19.832C10.5413 19.832 11.5759 19.5653 12.2586 19.032C12.9626 18.4773 13.3146 17.7627 13.3146 16.888C13.3146 15.9707 12.9413 15.2773 12.1946 14.808C11.4479 14.3173 10.1253 13.784 8.22659 13.208C7.15992 12.888 6.29592 12.5893 5.63459 12.312C4.97325 12.0347 4.26925 11.6507 3.52259 11.16C2.79725 10.648 2.25325 10.0187 1.89059 9.272C1.52792 8.52533 1.34659 7.65067 1.34659 6.648C1.34659 4.664 2.05059 3.096 3.45859 1.944C4.86659 0.770665 6.56259 0.183998 8.54659 0.183998C10.3386 0.183998 11.9066 0.621332 13.2506 1.496C14.5946 2.37067 15.6293 3.576 16.3546 5.112L13.2506 6.904C12.3119 4.81333 10.7439 3.768 8.54659 3.768C7.47992 3.768 6.62659 4.024 5.98659 4.536C5.34659 5.02667 5.02659 5.69867 5.02659 6.552C5.02659 7.384 5.34659 8.04533 5.98659 8.536C6.64792 9.00533 7.83192 9.50667 9.53859 10.04C10.3919 10.3173 11.0106 10.5307 11.3946 10.68C11.7999 10.808 12.3546 11.0213 13.0586 11.32C13.7839 11.6187 14.3279 11.9173 14.6906 12.216C15.0533 12.5147 15.4373 12.888 15.8426 13.336C16.2693 13.784 16.5679 14.296 16.7386 14.872C16.9093 15.448 16.9946 16.0987 16.9946 16.824C16.9946 18.8507 16.2586 20.4613 14.7866 21.656C13.3359 22.8293 11.4266 23.416 9.05859 23.416ZM23.2189 16.472C23.4749 17.688 24.0615 18.6267 24.9789 19.288C25.8962 19.928 27.0162 20.248 28.3389 20.248C30.1735 20.248 31.5495 19.5867 32.4669 18.264L35.3149 19.928C33.7362 22.2533 31.4002 23.416 28.3069 23.416C25.7042 23.416 23.6029 22.6267 22.0029 21.048C20.4029 19.448 19.6029 17.432 19.6029 15C19.6029 12.6107 20.3922 10.616 21.9709 9.016C23.5495 7.39467 25.5762 6.584 28.0509 6.584C30.3975 6.584 32.3175 7.40533 33.8109 9.048C35.3255 10.6907 36.0829 12.6853 36.0829 15.032C36.0829 15.3947 36.0402 15.8747 35.9549 16.472H23.2189ZM23.1869 13.656H32.5949C32.3602 12.3547 31.8162 11.3733 30.9629 10.712C30.1309 10.0507 29.1495 9.72 28.0189 9.72C26.7389 9.72 25.6722 10.072 24.8189 10.776C23.9655 11.48 23.4215 12.44 23.1869 13.656ZM42.7002 9.688C43.5748 7.704 45.2175 6.712 47.6282 6.712V10.456C46.3055 10.3707 45.1535 10.6907 44.1722 11.416C43.1908 12.12 42.7002 13.2933 42.7002 14.936V23H39.2442V7H42.7002V9.688ZM67.774 6.584C69.5873 6.584 71.0486 7.17067 72.158 8.344C73.2673 9.51733 73.822 11.096 73.822 13.08V23H70.366V13.304C70.366 12.1947 70.0886 11.3413 69.534 10.744C68.9793 10.1253 68.222 9.816 67.262 9.816C66.1953 9.816 65.342 10.168 64.702 10.872C64.0833 11.576 63.774 12.632 63.774 14.04V23H60.318V13.304C60.318 12.1947 60.0513 11.3413 59.518 10.744C59.006 10.1253 58.27 9.816 57.31 9.816C56.2646 9.816 55.4113 10.1787 54.75 10.904C54.0886 11.608 53.758 12.6533 53.758 14.04V23H50.302V7H53.758V8.92C54.782 7.36267 56.3073 6.584 58.334 6.584C60.382 6.584 61.8966 7.42667 62.878 9.112C63.9446 7.42667 65.5766 6.584 67.774 6.584ZM85.193 23.416C82.8463 23.416 80.8517 22.6053 79.209 20.984C77.5663 19.3627 76.745 17.368 76.745 15C76.745 12.632 77.5663 10.6373 79.209 9.016C80.8517 7.39467 82.8463 6.584 85.193 6.584C87.561 6.584 89.5557 7.39467 91.177 9.016C92.8197 10.6373 93.641 12.632 93.641 15C93.641 17.368 92.8197 19.3627 91.177 20.984C89.5557 22.6053 87.561 23.416 85.193 23.416ZM81.641 18.616C82.601 19.576 83.785 20.056 85.193 20.056C86.601 20.056 87.785 19.576 88.745 18.616C89.705 17.656 90.185 16.4507 90.185 15C90.185 13.5493 89.705 12.344 88.745 11.384C87.785 10.424 86.601 9.944 85.193 9.944C83.785 9.944 82.601 10.424 81.641 11.384C80.681 12.344 80.201 13.5493 80.201 15C80.201 16.4507 80.681 17.656 81.641 18.616ZM105.302 6.584C107.137 6.584 108.62 7.17067 109.75 8.344C110.881 9.51733 111.446 11.128 111.446 13.176V23H107.99V13.528C107.99 12.3333 107.67 11.416 107.03 10.776C106.39 10.136 105.516 9.816 104.406 9.816C103.19 9.816 102.209 10.2 101.462 10.968C100.716 11.7147 100.342 12.8667 100.342 14.424V23H96.8863V7H100.342V9.048C101.388 7.40533 103.041 6.584 105.302 6.584ZM138.224 23L136.656 18.488H127.12L125.552 23H121.552L129.68 0.599998H134.096L142.192 23H138.224ZM128.336 15.032H135.44L131.888 4.92L128.336 15.032ZM144.721 0.599998H148.401V23H144.721V0.599998Z" fill="#D89218"/>
</svg>
