<svg width="328" height="232" viewBox="0 0 328 232" fill="none" xmlns="http://www.w3.org/2000/svg">
<path d="M162.156 6.44946C156.441 6.44946 151.094 10.6973 151.094 17.4123V25.8568C151.094 26.3458 151.288 26.8146 151.634 27.1604C151.979 27.5061 152.449 27.7005 152.938 27.7005C153.426 27.7005 153.896 27.5061 154.241 27.1604C154.587 26.8146 154.781 26.3458 154.781 25.8568V17.4123C154.781 12.5374 158.115 10.137 162.156 10.137C166.589 10.137 169.531 12.7918 169.531 17.4123V25.8455C169.531 26.3345 169.725 26.8036 170.071 27.1493C170.417 27.4951 170.886 27.6893 171.375 27.6893C171.864 27.6893 172.333 27.4951 172.679 27.1493C173.025 26.8036 173.219 26.3345 173.219 25.8455V17.4123C173.219 11.0329 168.274 6.44946 162.156 6.44946Z" fill="url(#paint0_linear_11_473)"/>
<path d="M162.156 51.625C171.321 51.625 178.75 44.1957 178.75 35.0312C178.75 25.8668 171.321 18.4375 162.156 18.4375C152.992 18.4375 145.562 25.8668 145.562 35.0312C145.562 44.1957 152.992 51.625 162.156 51.625Z" fill="url(#paint1_linear_11_473)"/>
<path d="M162.156 29.5C160.113 29.5 158.469 31.1447 158.469 33.1875C158.469 34.209 158.874 35.1345 159.542 35.802C159.763 36.0232 160.043 36.1597 160.316 36.3182V42.4026C160.316 42.8916 160.51 43.3606 160.856 43.7063C161.202 44.0521 161.671 44.2464 162.16 44.2464C162.649 44.2464 163.118 44.0521 163.464 43.7063C163.809 43.3606 164.004 42.8916 164.004 42.4026V36.3109C164.266 36.156 164.546 36.0158 164.763 35.802C165.283 35.2869 165.637 34.6289 165.782 33.9118C165.926 33.1947 165.854 32.4509 165.574 31.7749C165.295 31.0989 164.821 30.5213 164.212 30.1156C163.603 29.7098 162.888 29.498 162.156 29.5Z" fill="url(#paint2_linear_11_473)"/>
<path d="M31.4162 76L26.5362 84.44V90H24.2362V84.44L19.3562 76H21.9762L25.3962 82.2L28.7962 76H31.4162ZM35.6299 90.26C34.1633 90.26 32.9166 89.7533 31.8899 88.74C30.8633 87.7267 30.3499 86.48 30.3499 85C30.3499 83.52 30.8633 82.2733 31.8899 81.26C32.9166 80.2467 34.1633 79.74 35.6299 79.74C37.1099 79.74 38.3566 80.2467 39.3699 81.26C40.3966 82.2733 40.9099 83.52 40.9099 85C40.9099 86.48 40.3966 87.7267 39.3699 88.74C38.3566 89.7533 37.1099 90.26 35.6299 90.26ZM33.4099 87.26C34.0099 87.86 34.7499 88.16 35.6299 88.16C36.5099 88.16 37.2499 87.86 37.8499 87.26C38.4499 86.66 38.7499 85.9067 38.7499 85C38.7499 84.0933 38.4499 83.34 37.8499 82.74C37.2499 82.14 36.5099 81.84 35.6299 81.84C34.7499 81.84 34.0099 82.14 33.4099 82.74C32.8099 83.34 32.5099 84.0933 32.5099 85C32.5099 85.9067 32.8099 86.66 33.4099 87.26ZM49.7233 80H51.8833V90H49.7233V88.72C49.07 89.7467 48.0367 90.26 46.6233 90.26C45.4767 90.26 44.55 89.8933 43.8433 89.16C43.1367 88.4267 42.7833 87.42 42.7833 86.14V80H44.9433V85.92C44.9433 86.6667 45.1433 87.24 45.5433 87.64C45.9433 88.04 46.49 88.24 47.1833 88.24C47.9433 88.24 48.5567 88.0067 49.0233 87.54C49.49 87.06 49.7233 86.3333 49.7233 85.36V80ZM57.5294 76L56.1294 81.2H54.3294L55.1294 76H57.5294ZM66.7227 80H69.0827L65.1827 90H62.6827L58.7827 80H61.1427L63.9427 87.6L66.7227 80ZM71.8801 85.92C72.0401 86.68 72.4068 87.2667 72.9801 87.68C73.5535 88.08 74.2535 88.28 75.0801 88.28C76.2268 88.28 77.0868 87.8667 77.6601 87.04L79.4401 88.08C78.4535 89.5333 76.9935 90.26 75.0601 90.26C73.4335 90.26 72.1201 89.7667 71.1201 88.78C70.1201 87.78 69.6201 86.52 69.6201 85C69.6201 83.5067 70.1135 82.26 71.1001 81.26C72.0868 80.2467 73.3535 79.74 74.9001 79.74C76.3668 79.74 77.5668 80.2533 78.5001 81.28C79.4468 82.3067 79.9201 83.5533 79.9201 85.02C79.9201 85.2467 79.8935 85.5467 79.8401 85.92H71.8801ZM71.8601 84.16H77.7401C77.5935 83.3467 77.2535 82.7333 76.7201 82.32C76.2001 81.9067 75.5868 81.7 74.8801 81.7C74.0801 81.7 73.4135 81.92 72.8801 82.36C72.3468 82.8 72.0068 83.4 71.8601 84.16ZM88.7613 85.92C88.9213 86.68 89.288 87.2667 89.8613 87.68C90.4347 88.08 91.1347 88.28 91.9613 88.28C93.108 88.28 93.968 87.8667 94.5413 87.04L96.3213 88.08C95.3347 89.5333 93.8747 90.26 91.9413 90.26C90.3147 90.26 89.0013 89.7667 88.0013 88.78C87.0013 87.78 86.5013 86.52 86.5013 85C86.5013 83.5067 86.9947 82.26 87.9813 81.26C88.968 80.2467 90.2347 79.74 91.7813 79.74C93.248 79.74 94.448 80.2533 95.3813 81.28C96.328 82.3067 96.8013 83.5533 96.8013 85.02C96.8013 85.2467 96.7747 85.5467 96.7213 85.92H88.7613ZM88.7413 84.16H94.6213C94.4747 83.3467 94.1347 82.7333 93.6013 82.32C93.0813 81.9067 92.468 81.7 91.7613 81.7C90.9613 81.7 90.2947 81.92 89.7613 82.36C89.228 82.8 88.888 83.4 88.7413 84.16ZM107.254 90H104.754L102.274 86.58L99.7745 90H97.2545L101.014 84.86L97.4545 80H99.9545L102.254 83.16L104.554 80H107.074L103.514 84.88L107.254 90ZM114.085 79.74C115.232 79.74 116.159 80.1067 116.865 80.84C117.572 81.5733 117.925 82.58 117.925 83.86V90H115.765V84.08C115.765 83.3333 115.565 82.76 115.165 82.36C114.765 81.96 114.219 81.76 113.525 81.76C112.765 81.76 112.152 82 111.685 82.48C111.219 82.9467 110.985 83.6667 110.985 84.64V90H108.825V76H110.985V81.28C111.639 80.2533 112.672 79.74 114.085 79.74ZM128.291 80H130.451V90H128.291V88.56C127.478 89.6933 126.311 90.26 124.791 90.26C123.418 90.26 122.245 89.7533 121.271 88.74C120.298 87.7133 119.811 86.4667 119.811 85C119.811 83.52 120.298 82.2733 121.271 81.26C122.245 80.2467 123.418 79.74 124.791 79.74C126.311 79.74 127.478 80.3 128.291 81.42V80ZM122.871 87.3C123.471 87.9 124.225 88.2 125.131 88.2C126.038 88.2 126.791 87.9 127.391 87.3C127.991 86.6867 128.291 85.92 128.291 85C128.291 84.08 127.991 83.32 127.391 82.72C126.791 82.1067 126.038 81.8 125.131 81.8C124.225 81.8 123.471 82.1067 122.871 82.72C122.271 83.32 121.971 84.08 121.971 85C121.971 85.92 122.271 86.6867 122.871 87.3ZM139.829 80H141.989V90H139.829V88.72C139.176 89.7467 138.143 90.26 136.729 90.26C135.583 90.26 134.656 89.8933 133.949 89.16C133.243 88.4267 132.889 87.42 132.889 86.14V80H135.049V85.92C135.049 86.6667 135.249 87.24 135.649 87.64C136.049 88.04 136.596 88.24 137.289 88.24C138.049 88.24 138.663 88.0067 139.129 87.54C139.596 87.06 139.829 86.3333 139.829 85.36V80ZM146.517 82.76C146.517 83.0933 146.697 83.36 147.057 83.56C147.43 83.7467 147.877 83.9133 148.397 84.06C148.93 84.1933 149.464 84.3533 149.997 84.54C150.53 84.7267 150.977 85.0467 151.337 85.5C151.71 85.94 151.897 86.5 151.897 87.18C151.897 88.14 151.524 88.8933 150.777 89.44C150.044 89.9867 149.117 90.26 147.997 90.26C147.01 90.26 146.164 90.0533 145.457 89.64C144.75 89.2267 144.237 88.6533 143.917 87.92L145.777 86.84C146.124 87.8 146.864 88.28 147.997 88.28C149.13 88.28 149.697 87.9067 149.697 87.16C149.697 86.84 149.51 86.58 149.137 86.38C148.777 86.18 148.33 86.0133 147.797 85.88C147.277 85.7333 146.75 85.5667 146.217 85.38C145.684 85.1933 145.23 84.8867 144.857 84.46C144.497 84.02 144.317 83.4667 144.317 82.8C144.317 81.88 144.664 81.14 145.357 80.58C146.064 80.02 146.937 79.74 147.977 79.74C148.804 79.74 149.537 79.9267 150.177 80.3C150.83 80.66 151.33 81.1667 151.677 81.82L149.857 82.84C149.51 82.08 148.884 81.7 147.977 81.7C147.564 81.7 147.217 81.7933 146.937 81.98C146.657 82.1533 146.517 82.4133 146.517 82.76ZM159.105 82.08H156.625V86.88C156.625 87.2933 156.719 87.5933 156.905 87.78C157.092 87.9533 157.365 88.0533 157.725 88.08C158.099 88.0933 158.559 88.0867 159.105 88.06V90C157.452 90.2 156.265 90.06 155.545 89.58C154.825 89.0867 154.465 88.1867 154.465 86.88V82.08H152.625V80H154.465V77.84L156.625 77.2V80H159.105V82.08ZM162.474 85.92C162.634 86.68 163.001 87.2667 163.574 87.68C164.148 88.08 164.848 88.28 165.674 88.28C166.821 88.28 167.681 87.8667 168.254 87.04L170.034 88.08C169.048 89.5333 167.588 90.26 165.654 90.26C164.028 90.26 162.714 89.7667 161.714 88.78C160.714 87.78 160.214 86.52 160.214 85C160.214 83.5067 160.708 82.26 161.694 81.26C162.681 80.2467 163.948 79.74 165.494 79.74C166.961 79.74 168.161 80.2533 169.094 81.28C170.041 82.3067 170.514 83.5533 170.514 85.02C170.514 85.2467 170.488 85.5467 170.434 85.92H162.474ZM162.454 84.16H168.334C168.188 83.3467 167.848 82.7333 167.314 82.32C166.794 81.9067 166.181 81.7 165.474 81.7C164.674 81.7 164.008 81.92 163.474 82.36C162.941 82.8 162.601 83.4 162.454 84.16ZM180.397 76H182.557V90H180.397V88.56C179.583 89.6933 178.417 90.26 176.897 90.26C175.523 90.26 174.35 89.7533 173.377 88.74C172.403 87.7133 171.917 86.4667 171.917 85C171.917 83.52 172.403 82.2733 173.377 81.26C174.35 80.2467 175.523 79.74 176.897 79.74C178.417 79.74 179.583 80.3 180.397 81.42V76ZM174.977 87.3C175.577 87.9 176.33 88.2 177.237 88.2C178.143 88.2 178.897 87.9 179.497 87.3C180.097 86.6867 180.397 85.92 180.397 85C180.397 84.08 180.097 83.32 179.497 82.72C178.897 82.1067 178.143 81.8 177.237 81.8C176.33 81.8 175.577 82.1067 174.977 82.72C174.377 83.32 174.077 84.08 174.077 85C174.077 85.92 174.377 86.6867 174.977 87.3ZM197.055 80H199.355L195.515 90.32C194.555 92.9067 192.928 94.1333 190.635 94V91.98C191.315 92.02 191.862 91.8733 192.275 91.54C192.688 91.22 193.028 90.7133 193.295 90.02L193.395 89.82L189.155 80H191.515L194.495 87.26L197.055 80ZM205.155 90.26C203.689 90.26 202.442 89.7533 201.415 88.74C200.389 87.7267 199.875 86.48 199.875 85C199.875 83.52 200.389 82.2733 201.415 81.26C202.442 80.2467 203.689 79.74 205.155 79.74C206.635 79.74 207.882 80.2467 208.895 81.26C209.922 82.2733 210.435 83.52 210.435 85C210.435 86.48 209.922 87.7267 208.895 88.74C207.882 89.7533 206.635 90.26 205.155 90.26ZM202.935 87.26C203.535 87.86 204.275 88.16 205.155 88.16C206.035 88.16 206.775 87.86 207.375 87.26C207.975 86.66 208.275 85.9067 208.275 85C208.275 84.0933 207.975 83.34 207.375 82.74C206.775 82.14 206.035 81.84 205.155 81.84C204.275 81.84 203.535 82.14 202.935 82.74C202.335 83.34 202.035 84.0933 202.035 85C202.035 85.9067 202.335 86.66 202.935 87.26ZM219.249 80H221.409V90H219.249V88.72C218.595 89.7467 217.562 90.26 216.149 90.26C215.002 90.26 214.075 89.8933 213.369 89.16C212.662 88.4267 212.309 87.42 212.309 86.14V80H214.469V85.92C214.469 86.6667 214.669 87.24 215.069 87.64C215.469 88.04 216.015 88.24 216.709 88.24C217.469 88.24 218.082 88.0067 218.549 87.54C219.015 87.06 219.249 86.3333 219.249 85.36V80ZM234.415 77.82C232.842 77.6733 232.055 78.3333 232.055 79.8V80H234.415V82.08H232.055V90H229.895V82.08H228.375V80H229.895V79.8C229.895 78.4267 230.275 77.3867 231.035 76.68C231.808 75.96 232.935 75.6467 234.415 75.74V77.82ZM237.959 81.68C238.506 80.44 239.533 79.82 241.039 79.82V82.16C240.213 82.1067 239.493 82.3067 238.879 82.76C238.266 83.2 237.959 83.9333 237.959 84.96V90H235.799V80H237.959V81.68ZM243.987 85.92C244.147 86.68 244.513 87.2667 245.087 87.68C245.66 88.08 246.36 88.28 247.187 88.28C248.333 88.28 249.193 87.8667 249.767 87.04L251.547 88.08C250.56 89.5333 249.1 90.26 247.167 90.26C245.54 90.26 244.227 89.7667 243.227 88.78C242.227 87.78 241.727 86.52 241.727 85C241.727 83.5067 242.22 82.26 243.207 81.26C244.193 80.2467 245.46 79.74 247.007 79.74C248.473 79.74 249.673 80.2533 250.607 81.28C251.553 82.3067 252.027 83.5533 252.027 85.02C252.027 85.2467 252 85.5467 251.947 85.92H243.987ZM243.967 84.16H249.847C249.7 83.3467 249.36 82.7333 248.827 82.32C248.307 81.9067 247.693 81.7 246.987 81.7C246.187 81.7 245.52 81.92 244.987 82.36C244.453 82.8 244.113 83.4 243.967 84.16ZM255.689 85.92C255.849 86.68 256.216 87.2667 256.789 87.68C257.362 88.08 258.062 88.28 258.889 88.28C260.036 88.28 260.896 87.8667 261.469 87.04L263.249 88.08C262.262 89.5333 260.802 90.26 258.869 90.26C257.242 90.26 255.929 89.7667 254.929 88.78C253.929 87.78 253.429 86.52 253.429 85C253.429 83.5067 253.922 82.26 254.909 81.26C255.896 80.2467 257.162 79.74 258.709 79.74C260.176 79.74 261.376 80.2533 262.309 81.28C263.256 82.3067 263.729 83.5533 263.729 85.02C263.729 85.2467 263.702 85.5467 263.649 85.92H255.689ZM255.669 84.16H261.549C261.402 83.3467 261.062 82.7333 260.529 82.32C260.009 81.9067 259.396 81.7 258.689 81.7C257.889 81.7 257.222 81.92 256.689 82.36C256.156 82.8 255.816 83.4 255.669 84.16ZM270.87 90V75.4H273.03V90H270.87ZM277.699 78.1C277.432 78.3667 277.112 78.5 276.739 78.5C276.365 78.5 276.039 78.3667 275.759 78.1C275.492 77.82 275.359 77.4933 275.359 77.12C275.359 76.7467 275.492 76.4267 275.759 76.16C276.025 75.88 276.352 75.74 276.739 75.74C277.125 75.74 277.452 75.88 277.719 76.16C277.985 76.4267 278.119 76.7467 278.119 77.12C278.119 77.4933 277.979 77.82 277.699 78.1ZM275.659 90V80H277.819V90H275.659ZM291.367 79.74C292.5 79.74 293.413 80.1067 294.107 80.84C294.8 81.5733 295.147 82.56 295.147 83.8V90H292.987V83.94C292.987 83.2467 292.813 82.7133 292.467 82.34C292.12 81.9533 291.647 81.76 291.047 81.76C290.38 81.76 289.847 81.98 289.447 82.42C289.06 82.86 288.867 83.52 288.867 84.4V90H286.707V83.94C286.707 83.2467 286.54 82.7133 286.207 82.34C285.887 81.9533 285.427 81.76 284.827 81.76C284.173 81.76 283.64 81.9867 283.227 82.44C282.813 82.88 282.607 83.5333 282.607 84.4V90H280.447V80H282.607V81.2C283.247 80.2267 284.2 79.74 285.467 79.74C286.747 79.74 287.693 80.2667 288.307 81.32C288.973 80.2667 289.993 79.74 291.367 79.74ZM299.619 78.1C299.352 78.3667 299.032 78.5 298.659 78.5C298.285 78.5 297.959 78.3667 297.679 78.1C297.412 77.82 297.279 77.4933 297.279 77.12C297.279 76.7467 297.412 76.4267 297.679 76.16C297.945 75.88 298.272 75.74 298.659 75.74C299.045 75.74 299.372 75.88 299.639 76.16C299.905 76.4267 300.039 76.7467 300.039 77.12C300.039 77.4933 299.899 77.82 299.619 78.1ZM297.579 90V80H299.739V90H297.579ZM307.947 82.08H305.467V86.88C305.467 87.2933 305.56 87.5933 305.747 87.78C305.934 87.9533 306.207 88.0533 306.567 88.08C306.94 88.0933 307.4 88.0867 307.947 88.06V90C306.294 90.2 305.107 90.06 304.387 89.58C303.667 89.0867 303.307 88.1867 303.307 86.88V82.08H301.467V80H303.307V77.84L305.467 77.2V80H307.947V82.08Z" fill="#3B3B3B"/>
<path d="M32.7333 112.352C32.1493 112.888 31.3933 113.156 30.4653 113.156C29.5373 113.156 28.7773 112.888 28.1853 112.352C27.6013 111.808 27.3093 111.084 27.3093 110.18V104.6H28.4253V110.132C28.4253 110.724 28.6013 111.196 28.9533 111.548C29.3053 111.892 29.8093 112.064 30.4653 112.064C31.1213 112.064 31.6253 111.892 31.9773 111.548C32.3293 111.196 32.5053 110.724 32.5053 110.132V104.6H33.6093V110.18C33.6093 111.084 33.3173 111.808 32.7333 112.352ZM38.3161 106.844C39.0201 106.844 39.5841 107.068 40.0081 107.516C40.4321 107.956 40.6441 108.556 40.6441 109.316V113H39.6001V109.376C39.6001 108.888 39.4681 108.512 39.2041 108.248C38.9401 107.976 38.5761 107.84 38.1121 107.84C37.5921 107.84 37.1721 108.004 36.8521 108.332C36.5321 108.652 36.3721 109.148 36.3721 109.82V113H35.3281V107H36.3721V107.864C36.7961 107.184 37.4441 106.844 38.3161 106.844ZM42.2218 113V104.24H43.2658V113H42.2218ZM50.0428 112.244C49.4268 112.852 48.6788 113.156 47.7988 113.156C46.9188 113.156 46.1708 112.852 45.5548 112.244C44.9468 111.636 44.6428 110.888 44.6428 110C44.6428 109.112 44.9468 108.364 45.5548 107.756C46.1708 107.148 46.9188 106.844 47.7988 106.844C48.6788 106.844 49.4268 107.148 50.0428 107.756C50.6588 108.364 50.9668 109.112 50.9668 110C50.9668 110.888 50.6588 111.636 50.0428 112.244ZM47.7988 112.136C48.3988 112.136 48.9028 111.932 49.3108 111.524C49.7188 111.116 49.9228 110.608 49.9228 110C49.9228 109.392 49.7188 108.884 49.3108 108.476C48.9028 108.068 48.3988 107.864 47.7988 107.864C47.2068 107.864 46.7068 108.068 46.2988 108.476C45.8908 108.884 45.6868 109.392 45.6868 110C45.6868 110.608 45.8908 111.116 46.2988 111.524C46.7068 111.932 47.2068 112.136 47.7988 112.136ZM55.1378 113.156C54.2338 113.156 53.4818 112.856 52.8818 112.256C52.2818 111.648 51.9818 110.896 51.9818 110C51.9818 109.104 52.2818 108.356 52.8818 107.756C53.4818 107.148 54.2338 106.844 55.1378 106.844C55.7298 106.844 56.2618 106.988 56.7338 107.276C57.2058 107.556 57.5578 107.936 57.7898 108.416L56.9138 108.92C56.7618 108.6 56.5258 108.344 56.2058 108.152C55.8938 107.96 55.5378 107.864 55.1378 107.864C54.5378 107.864 54.0338 108.068 53.6258 108.476C53.2258 108.884 53.0258 109.392 53.0258 110C53.0258 110.6 53.2258 111.104 53.6258 111.512C54.0338 111.92 54.5378 112.124 55.1378 112.124C55.5378 112.124 55.8978 112.032 56.2178 111.848C56.5378 111.656 56.7818 111.4 56.9498 111.08L57.8378 111.596C57.5818 112.068 57.2138 112.448 56.7338 112.736C56.2538 113.016 55.7218 113.156 55.1378 113.156ZM64.0649 113H62.7689L60.0329 110.156V113H58.9889V104.6H60.0329V109.652L62.6249 107H63.9689L61.1009 109.904L64.0649 113ZM69.8604 104.6H70.8204V113H69.7164V105.8L67.9284 106.328L67.6524 105.368L69.8604 104.6ZM78.05 111.968C77.482 112.76 76.686 113.156 75.662 113.156C74.638 113.156 73.842 112.76 73.274 111.968C72.706 111.176 72.422 110.12 72.422 108.8C72.422 107.48 72.706 106.424 73.274 105.632C73.842 104.84 74.638 104.444 75.662 104.444C76.686 104.444 77.482 104.84 78.05 105.632C78.618 106.424 78.902 107.48 78.902 108.8C78.902 110.12 78.618 111.176 78.05 111.968ZM74.09 111.212C74.458 111.78 74.982 112.064 75.662 112.064C76.342 112.064 76.866 111.78 77.234 111.212C77.61 110.644 77.798 109.84 77.798 108.8C77.798 107.76 77.61 106.956 77.234 106.388C76.866 105.812 76.342 105.524 75.662 105.524C74.982 105.524 74.458 105.808 74.09 106.376C73.722 106.944 73.538 107.752 73.538 108.8C73.538 109.84 73.722 110.644 74.09 111.212ZM85.7289 111.968C85.1609 112.76 84.3649 113.156 83.3409 113.156C82.3169 113.156 81.5209 112.76 80.9529 111.968C80.3849 111.176 80.1009 110.12 80.1009 108.8C80.1009 107.48 80.3849 106.424 80.9529 105.632C81.5209 104.84 82.3169 104.444 83.3409 104.444C84.3649 104.444 85.1609 104.84 85.7289 105.632C86.2969 106.424 86.5809 107.48 86.5809 108.8C86.5809 110.12 86.2969 111.176 85.7289 111.968ZM81.7689 111.212C82.1369 111.78 82.6609 112.064 83.3409 112.064C84.0209 112.064 84.5449 111.78 84.9129 111.212C85.2889 110.644 85.4769 109.84 85.4769 108.8C85.4769 107.76 85.2889 106.956 84.9129 106.388C84.5449 105.812 84.0209 105.524 83.3409 105.524C82.6609 105.524 82.1369 105.808 81.7689 106.376C81.4009 106.944 81.2169 107.752 81.2169 108.8C81.2169 109.84 81.4009 110.644 81.7689 111.212ZM93.4078 111.968C92.8398 112.76 92.0438 113.156 91.0198 113.156C89.9958 113.156 89.1998 112.76 88.6318 111.968C88.0638 111.176 87.7798 110.12 87.7798 108.8C87.7798 107.48 88.0638 106.424 88.6318 105.632C89.1998 104.84 89.9958 104.444 91.0198 104.444C92.0438 104.444 92.8398 104.84 93.4078 105.632C93.9758 106.424 94.2598 107.48 94.2598 108.8C94.2598 110.12 93.9758 111.176 93.4078 111.968ZM89.4478 111.212C89.8158 111.78 90.3398 112.064 91.0198 112.064C91.6998 112.064 92.2238 111.78 92.5918 111.212C92.9678 110.644 93.1558 109.84 93.1558 108.8C93.1558 107.76 92.9678 106.956 92.5918 106.388C92.2238 105.812 91.6998 105.524 91.0198 105.524C90.3398 105.524 89.8158 105.808 89.4478 106.376C89.0798 106.944 88.8958 107.752 88.8958 108.8C88.8958 109.84 89.0798 110.644 89.4478 111.212ZM95.6386 107.12L95.4946 104.6H96.5386L96.3946 107.12H95.6386ZM98.4419 108.62C98.4419 108.852 98.5579 109.04 98.7899 109.184C99.0219 109.32 99.3019 109.432 99.6299 109.52C99.9579 109.6 100.286 109.696 100.614 109.808C100.942 109.912 101.222 110.096 101.454 110.36C101.686 110.616 101.802 110.948 101.802 111.356C101.802 111.9 101.59 112.336 101.166 112.664C100.75 112.992 100.214 113.156 99.5579 113.156C98.9739 113.156 98.4739 113.028 98.0579 112.772C97.6419 112.516 97.3459 112.176 97.1699 111.752L98.0699 111.236C98.1659 111.524 98.3459 111.752 98.6099 111.92C98.8739 112.088 99.1899 112.172 99.5579 112.172C99.9019 112.172 100.186 112.108 100.41 111.98C100.634 111.844 100.746 111.636 100.746 111.356C100.746 111.124 100.63 110.94 100.398 110.804C100.166 110.66 99.8859 110.548 99.5579 110.468C99.2299 110.38 98.9019 110.28 98.5739 110.168C98.2459 110.056 97.9659 109.872 97.7339 109.616C97.5019 109.36 97.3859 109.032 97.3859 108.632C97.3859 108.112 97.5859 107.684 97.9859 107.348C98.3939 107.012 98.9019 106.844 99.5099 106.844C99.9979 106.844 100.43 106.956 100.806 107.18C101.19 107.396 101.478 107.7 101.67 108.092L100.794 108.584C100.578 108.072 100.15 107.816 99.5099 107.816C99.2139 107.816 98.9619 107.888 98.7539 108.032C98.5459 108.168 98.4419 108.364 98.4419 108.62ZM111.343 112.244C110.727 112.852 109.979 113.156 109.099 113.156C108.219 113.156 107.471 112.852 106.855 112.244C106.247 111.636 105.943 110.888 105.943 110C105.943 109.112 106.247 108.364 106.855 107.756C107.471 107.148 108.219 106.844 109.099 106.844C109.979 106.844 110.727 107.148 111.343 107.756C111.959 108.364 112.267 109.112 112.267 110C112.267 110.888 111.959 111.636 111.343 112.244ZM109.099 112.136C109.699 112.136 110.203 111.932 110.611 111.524C111.019 111.116 111.223 110.608 111.223 110C111.223 109.392 111.019 108.884 110.611 108.476C110.203 108.068 109.699 107.864 109.099 107.864C108.507 107.864 108.007 108.068 107.599 108.476C107.191 108.884 106.987 109.392 106.987 110C106.987 110.608 107.191 111.116 107.599 111.524C108.007 111.932 108.507 112.136 109.099 112.136ZM116.479 105.452C115.423 105.364 114.895 105.82 114.895 106.82V107H116.479V108.008H114.895V113H113.851V108.008H112.891V107H113.851V106.82C113.851 106.012 114.075 105.4 114.523 104.984C114.979 104.568 115.631 104.388 116.479 104.444V105.452ZM125.578 112.244C124.962 112.852 124.214 113.156 123.334 113.156C122.454 113.156 121.706 112.852 121.09 112.244C120.482 111.636 120.178 110.888 120.178 110C120.178 109.112 120.482 108.364 121.09 107.756C121.706 107.148 122.454 106.844 123.334 106.844C124.214 106.844 124.962 107.148 125.578 107.756C126.194 108.364 126.502 109.112 126.502 110C126.502 110.888 126.194 111.636 125.578 112.244ZM123.334 112.136C123.934 112.136 124.438 111.932 124.846 111.524C125.254 111.116 125.458 110.608 125.458 110C125.458 109.392 125.254 108.884 124.846 108.476C124.438 108.068 123.934 107.864 123.334 107.864C122.742 107.864 122.242 108.068 121.834 108.476C121.426 108.884 121.222 109.392 121.222 110C121.222 110.608 121.426 111.116 121.834 111.524C122.242 111.932 122.742 112.136 123.334 112.136ZM130.989 108.008H129.393V111.26C129.393 111.556 129.449 111.768 129.561 111.896C129.681 112.016 129.861 112.08 130.101 112.088C130.341 112.088 130.637 112.08 130.989 112.064V113C130.077 113.12 129.409 113.048 128.985 112.784C128.561 112.512 128.349 112.004 128.349 111.26V108.008H127.161V107H128.349V105.632L129.393 105.32V107H130.989V108.008ZM135.333 106.844C136.037 106.844 136.601 107.068 137.025 107.516C137.449 107.956 137.661 108.556 137.661 109.316V113H136.617V109.376C136.617 108.888 136.485 108.512 136.221 108.248C135.957 107.976 135.593 107.84 135.129 107.84C134.609 107.84 134.189 108.004 133.869 108.332C133.549 108.652 133.389 109.148 133.389 109.82V113H132.345V104.6H133.389V107.864C133.813 107.184 134.461 106.844 135.333 106.844ZM139.971 110.48C140.075 111.016 140.319 111.432 140.703 111.728C141.095 112.024 141.575 112.172 142.143 112.172C142.935 112.172 143.511 111.88 143.871 111.296L144.759 111.8C144.175 112.704 143.295 113.156 142.119 113.156C141.167 113.156 140.391 112.86 139.791 112.268C139.199 111.668 138.903 110.912 138.903 110C138.903 109.096 139.195 108.344 139.779 107.744C140.363 107.144 141.119 106.844 142.047 106.844C142.927 106.844 143.643 107.156 144.195 107.78C144.755 108.396 145.035 109.14 145.035 110.012C145.035 110.164 145.023 110.32 144.999 110.48H139.971ZM142.047 107.828C141.487 107.828 141.023 107.988 140.655 108.308C140.287 108.62 140.059 109.04 139.971 109.568H143.979C143.891 109 143.667 108.568 143.307 108.272C142.947 107.976 142.527 107.828 142.047 107.828ZM147.399 108.008C147.743 107.264 148.367 106.892 149.271 106.892V107.984C148.759 107.96 148.319 108.096 147.951 108.392C147.583 108.688 147.399 109.164 147.399 109.82V113H146.355V107H147.399V108.008ZM154.433 108.62C154.433 108.852 154.549 109.04 154.781 109.184C155.013 109.32 155.293 109.432 155.621 109.52C155.949 109.6 156.277 109.696 156.605 109.808C156.933 109.912 157.213 110.096 157.445 110.36C157.677 110.616 157.793 110.948 157.793 111.356C157.793 111.9 157.581 112.336 157.157 112.664C156.741 112.992 156.205 113.156 155.549 113.156C154.965 113.156 154.465 113.028 154.049 112.772C153.633 112.516 153.337 112.176 153.161 111.752L154.061 111.236C154.157 111.524 154.337 111.752 154.601 111.92C154.865 112.088 155.181 112.172 155.549 112.172C155.893 112.172 156.177 112.108 156.401 111.98C156.625 111.844 156.737 111.636 156.737 111.356C156.737 111.124 156.621 110.94 156.389 110.804C156.157 110.66 155.877 110.548 155.549 110.468C155.221 110.38 154.893 110.28 154.565 110.168C154.237 110.056 153.957 109.872 153.725 109.616C153.493 109.36 153.377 109.032 153.377 108.632C153.377 108.112 153.577 107.684 153.977 107.348C154.385 107.012 154.893 106.844 155.501 106.844C155.989 106.844 156.421 106.956 156.797 107.18C157.181 107.396 157.469 107.7 157.661 108.092L156.785 108.584C156.569 108.072 156.141 107.816 155.501 107.816C155.205 107.816 154.953 107.888 154.745 108.032C154.537 108.168 154.433 108.364 154.433 108.62ZM159.717 110.48C159.821 111.016 160.065 111.432 160.449 111.728C160.841 112.024 161.321 112.172 161.889 112.172C162.681 112.172 163.257 111.88 163.617 111.296L164.505 111.8C163.921 112.704 163.041 113.156 161.865 113.156C160.913 113.156 160.137 112.86 159.537 112.268C158.945 111.668 158.649 110.912 158.649 110C158.649 109.096 158.941 108.344 159.525 107.744C160.109 107.144 160.865 106.844 161.793 106.844C162.673 106.844 163.389 107.156 163.941 107.78C164.501 108.396 164.781 109.14 164.781 110.012C164.781 110.164 164.769 110.32 164.745 110.48H159.717ZM161.793 107.828C161.233 107.828 160.769 107.988 160.401 108.308C160.033 108.62 159.805 109.04 159.717 109.568H163.725C163.637 109 163.413 108.568 163.053 108.272C162.693 107.976 162.273 107.828 161.793 107.828ZM167.146 108.008C167.49 107.264 168.114 106.892 169.018 106.892V107.984C168.506 107.96 168.066 108.096 167.698 108.392C167.33 108.688 167.146 109.164 167.146 109.82V113H166.102V107H167.146V108.008ZM176.64 106.844C177.312 106.844 177.856 107.064 178.272 107.504C178.688 107.936 178.896 108.524 178.896 109.268V113H177.852V109.304C177.852 108.84 177.732 108.48 177.492 108.224C177.252 107.968 176.932 107.84 176.532 107.84C176.084 107.84 175.724 107.992 175.452 108.296C175.188 108.592 175.056 109.048 175.056 109.664V113H174.012V109.304C174.012 108.84 173.896 108.48 173.664 108.224C173.44 107.968 173.132 107.84 172.74 107.84C172.3 107.84 171.932 107.992 171.636 108.296C171.348 108.6 171.204 109.056 171.204 109.664V113H170.16V107H171.204V107.804C171.612 107.164 172.208 106.844 172.992 106.844C173.8 106.844 174.388 107.184 174.756 107.864C175.172 107.184 175.8 106.844 176.64 106.844ZM185.527 112.244C184.911 112.852 184.163 113.156 183.283 113.156C182.403 113.156 181.655 112.852 181.039 112.244C180.431 111.636 180.127 110.888 180.127 110C180.127 109.112 180.431 108.364 181.039 107.756C181.655 107.148 182.403 106.844 183.283 106.844C184.163 106.844 184.911 107.148 185.527 107.756C186.143 108.364 186.451 109.112 186.451 110C186.451 110.888 186.143 111.636 185.527 112.244ZM183.283 112.136C183.883 112.136 184.387 111.932 184.795 111.524C185.203 111.116 185.407 110.608 185.407 110C185.407 109.392 185.203 108.884 184.795 108.476C184.387 108.068 183.883 107.864 183.283 107.864C182.691 107.864 182.191 108.068 181.783 108.476C181.375 108.884 181.171 109.392 181.171 110C181.171 110.608 181.375 111.116 181.783 111.524C182.191 111.932 182.691 112.136 183.283 112.136ZM190.79 106.844C191.494 106.844 192.058 107.068 192.482 107.516C192.906 107.956 193.118 108.556 193.118 109.316V113H192.074V109.376C192.074 108.888 191.942 108.512 191.678 108.248C191.414 107.976 191.05 107.84 190.586 107.84C190.066 107.84 189.646 108.004 189.326 108.332C189.006 108.652 188.846 109.148 188.846 109.82V113H187.802V107H188.846V107.864C189.27 107.184 189.918 106.844 190.79 106.844ZM195.596 108.62C195.596 108.852 195.712 109.04 195.944 109.184C196.176 109.32 196.456 109.432 196.784 109.52C197.112 109.6 197.44 109.696 197.768 109.808C198.096 109.912 198.376 110.096 198.608 110.36C198.84 110.616 198.956 110.948 198.956 111.356C198.956 111.9 198.744 112.336 198.32 112.664C197.904 112.992 197.368 113.156 196.712 113.156C196.128 113.156 195.628 113.028 195.212 112.772C194.796 112.516 194.5 112.176 194.324 111.752L195.224 111.236C195.32 111.524 195.5 111.752 195.764 111.92C196.028 112.088 196.344 112.172 196.712 112.172C197.056 112.172 197.34 112.108 197.564 111.98C197.788 111.844 197.9 111.636 197.9 111.356C197.9 111.124 197.784 110.94 197.552 110.804C197.32 110.66 197.04 110.548 196.712 110.468C196.384 110.38 196.056 110.28 195.728 110.168C195.4 110.056 195.12 109.872 194.888 109.616C194.656 109.36 194.54 109.032 194.54 108.632C194.54 108.112 194.74 107.684 195.14 107.348C195.548 107.012 196.056 106.844 196.664 106.844C197.152 106.844 197.584 106.956 197.96 107.18C198.344 107.396 198.632 107.7 198.824 108.092L197.948 108.584C197.732 108.072 197.304 107.816 196.664 107.816C196.368 107.816 196.116 107.888 195.908 108.032C195.7 108.168 195.596 108.364 195.596 108.62ZM208.401 107H209.445V113H208.401V111.968C207.881 112.76 207.125 113.156 206.133 113.156C205.293 113.156 204.577 112.852 203.985 112.244C203.393 111.628 203.097 110.88 203.097 110C203.097 109.12 203.393 108.376 203.985 107.768C204.577 107.152 205.293 106.844 206.133 106.844C207.125 106.844 207.881 107.24 208.401 108.032V107ZM206.265 112.148C206.873 112.148 207.381 111.944 207.789 111.536C208.197 111.12 208.401 110.608 208.401 110C208.401 109.392 208.197 108.884 207.789 108.476C207.381 108.06 206.873 107.852 206.265 107.852C205.665 107.852 205.161 108.06 204.753 108.476C204.345 108.884 204.141 109.392 204.141 110C204.141 110.608 204.345 111.12 204.753 111.536C205.161 111.944 205.665 112.148 206.265 112.148ZM212.035 108.62C212.035 108.852 212.151 109.04 212.383 109.184C212.615 109.32 212.895 109.432 213.223 109.52C213.551 109.6 213.879 109.696 214.207 109.808C214.535 109.912 214.815 110.096 215.047 110.36C215.279 110.616 215.395 110.948 215.395 111.356C215.395 111.9 215.183 112.336 214.759 112.664C214.343 112.992 213.807 113.156 213.151 113.156C212.567 113.156 212.067 113.028 211.651 112.772C211.235 112.516 210.939 112.176 210.763 111.752L211.663 111.236C211.759 111.524 211.939 111.752 212.203 111.92C212.467 112.088 212.783 112.172 213.151 112.172C213.495 112.172 213.779 112.108 214.003 111.98C214.227 111.844 214.339 111.636 214.339 111.356C214.339 111.124 214.223 110.94 213.991 110.804C213.759 110.66 213.479 110.548 213.151 110.468C212.823 110.38 212.495 110.28 212.167 110.168C211.839 110.056 211.559 109.872 211.327 109.616C211.095 109.36 210.979 109.032 210.979 108.632C210.979 108.112 211.179 107.684 211.579 107.348C211.987 107.012 212.495 106.844 213.103 106.844C213.591 106.844 214.023 106.956 214.399 107.18C214.783 107.396 215.071 107.7 215.263 108.092L214.387 108.584C214.171 108.072 213.743 107.816 213.103 107.816C212.807 107.816 212.555 107.888 212.347 108.032C212.139 108.168 212.035 108.364 212.035 108.62ZM222.956 105.452C221.9 105.364 221.372 105.82 221.372 106.82V107H222.956V108.008H221.372V113H220.328V108.008H219.368V107H220.328V106.82C220.328 106.012 220.552 105.4 221 104.984C221.456 104.568 222.108 104.388 222.956 104.444V105.452ZM228.511 107H229.555V113H228.511V111.968C227.991 112.76 227.235 113.156 226.243 113.156C225.403 113.156 224.687 112.852 224.095 112.244C223.503 111.628 223.207 110.88 223.207 110C223.207 109.12 223.503 108.376 224.095 107.768C224.687 107.152 225.403 106.844 226.243 106.844C227.235 106.844 227.991 107.24 228.511 108.032V107ZM226.375 112.148C226.983 112.148 227.491 111.944 227.899 111.536C228.307 111.12 228.511 110.608 228.511 110C228.511 109.392 228.307 108.884 227.899 108.476C227.491 108.06 226.983 107.852 226.375 107.852C225.775 107.852 225.271 108.06 224.863 108.476C224.455 108.884 224.251 109.392 224.251 110C224.251 110.608 224.455 111.12 224.863 111.536C225.271 111.944 225.775 112.148 226.375 112.148ZM231.785 105.908C231.585 105.908 231.417 105.84 231.281 105.704C231.145 105.568 231.077 105.404 231.077 105.212C231.077 105.02 231.145 104.856 231.281 104.72C231.417 104.576 231.585 104.504 231.785 104.504C231.977 104.504 232.141 104.576 232.277 104.72C232.413 104.856 232.481 105.02 232.481 105.212C232.481 105.404 232.413 105.568 232.277 105.704C232.141 105.84 231.977 105.908 231.785 105.908ZM231.257 113V107H232.301V113H231.257ZM237.278 108.008H235.682V111.26C235.682 111.556 235.738 111.768 235.85 111.896C235.97 112.016 236.15 112.08 236.39 112.088C236.63 112.088 236.926 112.08 237.278 112.064V113C236.366 113.12 235.698 113.048 235.274 112.784C234.85 112.512 234.638 112.004 234.638 111.26V108.008H233.45V107H234.638V105.632L235.682 105.32V107H237.278V108.008ZM241.622 106.844C242.326 106.844 242.89 107.068 243.314 107.516C243.738 107.956 243.95 108.556 243.95 109.316V113H242.906V109.376C242.906 108.888 242.774 108.512 242.51 108.248C242.246 107.976 241.882 107.84 241.418 107.84C240.898 107.84 240.478 108.004 240.158 108.332C239.838 108.652 239.678 109.148 239.678 109.82V113H238.634V104.6H239.678V107.864C240.102 107.184 240.75 106.844 241.622 106.844ZM251.468 113.156C250.564 113.156 249.812 112.856 249.212 112.256C248.612 111.648 248.312 110.896 248.312 110C248.312 109.104 248.612 108.356 249.212 107.756C249.812 107.148 250.564 106.844 251.468 106.844C252.06 106.844 252.592 106.988 253.064 107.276C253.536 107.556 253.888 107.936 254.12 108.416L253.244 108.92C253.092 108.6 252.856 108.344 252.536 108.152C252.224 107.96 251.868 107.864 251.468 107.864C250.868 107.864 250.364 108.068 249.956 108.476C249.556 108.884 249.356 109.392 249.356 110C249.356 110.6 249.556 111.104 249.956 111.512C250.364 111.92 250.868 112.124 251.468 112.124C251.868 112.124 252.228 112.032 252.548 111.848C252.868 111.656 253.112 111.4 253.28 111.08L254.168 111.596C253.912 112.068 253.544 112.448 253.064 112.736C252.584 113.016 252.052 113.156 251.468 113.156ZM260.301 112.244C259.685 112.852 258.937 113.156 258.057 113.156C257.177 113.156 256.429 112.852 255.813 112.244C255.205 111.636 254.901 110.888 254.901 110C254.901 109.112 255.205 108.364 255.813 107.756C256.429 107.148 257.177 106.844 258.057 106.844C258.937 106.844 259.685 107.148 260.301 107.756C260.917 108.364 261.225 109.112 261.225 110C261.225 110.888 260.917 111.636 260.301 112.244ZM258.057 112.136C258.657 112.136 259.161 111.932 259.569 111.524C259.977 111.116 260.181 110.608 260.181 110C260.181 109.392 259.977 108.884 259.569 108.476C259.161 108.068 258.657 107.864 258.057 107.864C257.465 107.864 256.965 108.068 256.557 108.476C256.149 108.884 255.945 109.392 255.945 110C255.945 110.608 256.149 111.116 256.557 111.524C256.965 111.932 257.465 112.136 258.057 112.136ZM269.056 106.844C269.728 106.844 270.272 107.064 270.688 107.504C271.104 107.936 271.312 108.524 271.312 109.268V113H270.268V109.304C270.268 108.84 270.148 108.48 269.908 108.224C269.668 107.968 269.348 107.84 268.948 107.84C268.5 107.84 268.14 107.992 267.868 108.296C267.604 108.592 267.472 109.048 267.472 109.664V113H266.428V109.304C266.428 108.84 266.312 108.48 266.08 108.224C265.856 107.968 265.548 107.84 265.156 107.84C264.716 107.84 264.348 107.992 264.052 108.296C263.764 108.6 263.62 109.056 263.62 109.664V113H262.576V107H263.62V107.804C264.028 107.164 264.624 106.844 265.408 106.844C266.216 106.844 266.804 107.184 267.172 107.864C267.588 107.184 268.216 106.844 269.056 106.844ZM273.612 110.48C273.716 111.016 273.96 111.432 274.344 111.728C274.736 112.024 275.216 112.172 275.784 112.172C276.576 112.172 277.152 111.88 277.512 111.296L278.4 111.8C277.816 112.704 276.936 113.156 275.76 113.156C274.808 113.156 274.032 112.86 273.432 112.268C272.84 111.668 272.544 110.912 272.544 110C272.544 109.096 272.836 108.344 273.42 107.744C274.004 107.144 274.76 106.844 275.688 106.844C276.568 106.844 277.284 107.156 277.836 107.78C278.396 108.396 278.676 109.14 278.676 110.012C278.676 110.164 278.664 110.32 278.64 110.48H273.612ZM275.688 107.828C275.128 107.828 274.664 107.988 274.296 108.308C273.928 108.62 273.7 109.04 273.612 109.568H277.62C277.532 109 277.308 108.568 276.948 108.272C276.588 107.976 276.168 107.828 275.688 107.828ZM280.662 108.62C280.662 108.852 280.778 109.04 281.01 109.184C281.242 109.32 281.522 109.432 281.85 109.52C282.178 109.6 282.506 109.696 282.834 109.808C283.162 109.912 283.442 110.096 283.674 110.36C283.906 110.616 284.022 110.948 284.022 111.356C284.022 111.9 283.81 112.336 283.386 112.664C282.97 112.992 282.434 113.156 281.778 113.156C281.194 113.156 280.694 113.028 280.278 112.772C279.862 112.516 279.566 112.176 279.39 111.752L280.29 111.236C280.386 111.524 280.566 111.752 280.83 111.92C281.094 112.088 281.41 112.172 281.778 112.172C282.122 112.172 282.406 112.108 282.63 111.98C282.854 111.844 282.966 111.636 282.966 111.356C282.966 111.124 282.85 110.94 282.618 110.804C282.386 110.66 282.106 110.548 281.778 110.468C281.45 110.38 281.122 110.28 280.794 110.168C280.466 110.056 280.186 109.872 279.954 109.616C279.722 109.36 279.606 109.032 279.606 108.632C279.606 108.112 279.806 107.684 280.206 107.348C280.614 107.012 281.122 106.844 281.73 106.844C282.218 106.844 282.65 106.956 283.026 107.18C283.41 107.396 283.698 107.7 283.89 108.092L283.014 108.584C282.798 108.072 282.37 107.816 281.73 107.816C281.434 107.816 281.182 107.888 280.974 108.032C280.766 108.168 280.662 108.364 280.662 108.62ZM291.811 106.844C292.651 106.844 293.367 107.152 293.959 107.768C294.551 108.376 294.847 109.12 294.847 110C294.847 110.88 294.551 111.628 293.959 112.244C293.367 112.852 292.651 113.156 291.811 113.156C290.819 113.156 290.063 112.76 289.543 111.968V113H288.499V104.6H289.543V108.032C290.063 107.24 290.819 106.844 291.811 106.844ZM291.679 112.148C292.279 112.148 292.783 111.944 293.191 111.536C293.599 111.12 293.803 110.608 293.803 110C293.803 109.392 293.599 108.884 293.191 108.476C292.783 108.06 292.279 107.852 291.679 107.852C291.071 107.852 290.563 108.06 290.155 108.476C289.747 108.884 289.543 109.392 289.543 110C289.543 110.608 289.747 111.12 290.155 111.536C290.563 111.944 291.071 112.148 291.679 112.148ZM300.167 107H301.283L298.835 113.372C298.579 114.052 298.219 114.568 297.755 114.92C297.299 115.28 296.771 115.44 296.171 115.4V114.428C296.907 114.484 297.447 114.076 297.791 113.204L297.899 112.976L295.283 107H296.399L298.439 111.704L300.167 107ZM98.8924 124.844C99.5964 124.844 100.16 125.068 100.584 125.516C101.008 125.956 101.22 126.556 101.22 127.316V131H100.176V127.376C100.176 126.888 100.044 126.512 99.7804 126.248C99.5164 125.976 99.1524 125.84 98.6884 125.84C98.1684 125.84 97.7484 126.004 97.4284 126.332C97.1084 126.652 96.9484 127.148 96.9484 127.82V131H95.9044V122.6H96.9484V125.864C97.3724 125.184 98.0204 124.844 98.8924 124.844ZM103.53 128.48C103.634 129.016 103.878 129.432 104.262 129.728C104.654 130.024 105.134 130.172 105.702 130.172C106.494 130.172 107.07 129.88 107.43 129.296L108.318 129.8C107.734 130.704 106.854 131.156 105.678 131.156C104.726 131.156 103.95 130.86 103.35 130.268C102.758 129.668 102.462 128.912 102.462 128C102.462 127.096 102.754 126.344 103.338 125.744C103.922 125.144 104.678 124.844 105.606 124.844C106.486 124.844 107.202 125.156 107.754 125.78C108.314 126.396 108.594 127.14 108.594 128.012C108.594 128.164 108.582 128.32 108.558 128.48H103.53ZM105.606 125.828C105.046 125.828 104.582 125.988 104.214 126.308C103.846 126.62 103.618 127.04 103.53 127.568H107.538C107.45 127 107.226 126.568 106.866 126.272C106.506 125.976 106.086 125.828 105.606 125.828ZM114.871 125H115.915V131H114.871V129.968C114.351 130.76 113.595 131.156 112.603 131.156C111.763 131.156 111.047 130.852 110.455 130.244C109.863 129.628 109.567 128.88 109.567 128C109.567 127.12 109.863 126.376 110.455 125.768C111.047 125.152 111.763 124.844 112.603 124.844C113.595 124.844 114.351 125.24 114.871 126.032V125ZM112.735 130.148C113.343 130.148 113.851 129.944 114.259 129.536C114.667 129.12 114.871 128.608 114.871 128C114.871 127.392 114.667 126.884 114.259 126.476C113.851 126.06 113.343 125.852 112.735 125.852C112.135 125.852 111.631 126.06 111.223 126.476C110.815 126.884 110.611 127.392 110.611 128C110.611 128.608 110.815 129.12 111.223 129.536C111.631 129.944 112.135 130.148 112.735 130.148ZM118.661 126.008C119.005 125.264 119.629 124.892 120.533 124.892V125.984C120.021 125.96 119.581 126.096 119.213 126.392C118.845 126.688 118.661 127.164 118.661 127.82V131H117.617V125H118.661V126.008ZM122.203 123.908C122.003 123.908 121.835 123.84 121.699 123.704C121.563 123.568 121.495 123.404 121.495 123.212C121.495 123.02 121.563 122.856 121.699 122.72C121.835 122.576 122.003 122.504 122.203 122.504C122.395 122.504 122.559 122.576 122.695 122.72C122.831 122.856 122.899 123.02 122.899 123.212C122.899 123.404 122.831 123.568 122.695 123.704C122.559 123.84 122.395 123.908 122.203 123.908ZM121.675 131V125H122.719V131H121.675ZM127.42 124.844C128.124 124.844 128.688 125.068 129.112 125.516C129.536 125.956 129.748 126.556 129.748 127.316V131H128.704V127.376C128.704 126.888 128.572 126.512 128.308 126.248C128.044 125.976 127.68 125.84 127.216 125.84C126.696 125.84 126.276 126.004 125.956 126.332C125.636 126.652 125.476 127.148 125.476 127.82V131H124.432V125H125.476V125.864C125.9 125.184 126.548 124.844 127.42 124.844ZM136.305 125H137.337V130.748C137.337 131.636 137.037 132.324 136.437 132.812C135.837 133.308 135.117 133.556 134.277 133.556C133.605 133.556 133.025 133.428 132.537 133.172C132.049 132.924 131.681 132.564 131.433 132.092L132.345 131.576C132.673 132.248 133.325 132.584 134.301 132.584C134.925 132.584 135.413 132.42 135.765 132.092C136.125 131.764 136.305 131.316 136.305 130.748V129.896C135.777 130.696 135.025 131.096 134.049 131.096C133.193 131.096 132.469 130.792 131.877 130.184C131.285 129.576 130.989 128.836 130.989 127.964C130.989 127.092 131.285 126.356 131.877 125.756C132.469 125.148 133.193 124.844 134.049 124.844C135.033 124.844 135.785 125.24 136.305 126.032V125ZM132.645 129.488C133.053 129.896 133.561 130.1 134.169 130.1C134.777 130.1 135.285 129.896 135.693 129.488C136.101 129.08 136.305 128.572 136.305 127.964C136.305 127.364 136.101 126.86 135.693 126.452C135.285 126.044 134.777 125.84 134.169 125.84C133.561 125.84 133.053 126.044 132.645 126.452C132.237 126.86 132.033 127.364 132.033 127.964C132.033 128.572 132.237 129.08 132.645 129.488ZM145.424 126.008H143.828V129.26C143.828 129.556 143.884 129.768 143.996 129.896C144.116 130.016 144.296 130.08 144.536 130.088C144.776 130.088 145.072 130.08 145.424 130.064V131C144.512 131.12 143.844 131.048 143.42 130.784C142.996 130.512 142.784 130.004 142.784 129.26V126.008H141.596V125H142.784V123.632L143.828 123.32V125H145.424V126.008ZM149.768 124.844C150.472 124.844 151.036 125.068 151.46 125.516C151.884 125.956 152.096 126.556 152.096 127.316V131H151.052V127.376C151.052 126.888 150.92 126.512 150.656 126.248C150.392 125.976 150.028 125.84 149.564 125.84C149.044 125.84 148.624 126.004 148.304 126.332C147.984 126.652 147.824 127.148 147.824 127.82V131H146.78V122.6H147.824V125.864C148.248 125.184 148.896 124.844 149.768 124.844ZM154.406 128.48C154.51 129.016 154.754 129.432 155.138 129.728C155.53 130.024 156.01 130.172 156.578 130.172C157.37 130.172 157.946 129.88 158.306 129.296L159.194 129.8C158.61 130.704 157.73 131.156 156.554 131.156C155.602 131.156 154.826 130.86 154.226 130.268C153.634 129.668 153.338 128.912 153.338 128C153.338 127.096 153.63 126.344 154.214 125.744C154.798 125.144 155.554 124.844 156.482 124.844C157.362 124.844 158.078 125.156 158.63 125.78C159.19 126.396 159.47 127.14 159.47 128.012C159.47 128.164 159.458 128.32 159.434 128.48H154.406ZM156.482 125.828C155.922 125.828 155.458 125.988 155.09 126.308C154.722 126.62 154.494 127.04 154.406 127.568H158.414C158.326 127 158.102 126.568 157.742 126.272C157.382 125.976 156.962 125.828 156.482 125.828ZM170.978 125H172.07L170.21 131H169.142L167.738 126.56L166.334 131H165.266L163.406 125H164.498L165.818 129.56L167.234 125H168.242L169.658 129.572L170.978 125ZM178.095 130.244C177.479 130.852 176.731 131.156 175.851 131.156C174.971 131.156 174.223 130.852 173.607 130.244C172.999 129.636 172.695 128.888 172.695 128C172.695 127.112 172.999 126.364 173.607 125.756C174.223 125.148 174.971 124.844 175.851 124.844C176.731 124.844 177.479 125.148 178.095 125.756C178.711 126.364 179.019 127.112 179.019 128C179.019 128.888 178.711 129.636 178.095 130.244ZM175.851 130.136C176.451 130.136 176.955 129.932 177.363 129.524C177.771 129.116 177.975 128.608 177.975 128C177.975 127.392 177.771 126.884 177.363 126.476C176.955 126.068 176.451 125.864 175.851 125.864C175.259 125.864 174.759 126.068 174.351 126.476C173.943 126.884 173.739 127.392 173.739 128C173.739 128.608 173.943 129.116 174.351 129.524C174.759 129.932 175.259 130.136 175.851 130.136ZM181.414 126.008C181.758 125.264 182.382 124.892 183.286 124.892V125.984C182.774 125.96 182.334 126.096 181.966 126.392C181.598 126.688 181.414 127.164 181.414 127.82V131H180.37V125H181.414V126.008ZM189.067 122.6H190.111V131H189.067V129.968C188.547 130.76 187.791 131.156 186.799 131.156C185.959 131.156 185.243 130.852 184.651 130.244C184.059 129.628 183.763 128.88 183.763 128C183.763 127.12 184.059 126.376 184.651 125.768C185.243 125.152 185.959 124.844 186.799 124.844C187.791 124.844 188.547 125.24 189.067 126.032V122.6ZM186.931 130.148C187.539 130.148 188.047 129.944 188.455 129.536C188.863 129.12 189.067 128.608 189.067 128C189.067 127.392 188.863 126.884 188.455 126.476C188.047 126.06 187.539 125.852 186.931 125.852C186.331 125.852 185.827 126.06 185.419 126.476C185.011 126.884 184.807 127.392 184.807 128C184.807 128.608 185.011 129.12 185.419 129.536C185.827 129.944 186.331 130.148 186.931 130.148ZM199.998 130.244C199.382 130.852 198.634 131.156 197.754 131.156C196.874 131.156 196.126 130.852 195.51 130.244C194.902 129.636 194.598 128.888 194.598 128C194.598 127.112 194.902 126.364 195.51 125.756C196.126 125.148 196.874 124.844 197.754 124.844C198.634 124.844 199.382 125.148 199.998 125.756C200.614 126.364 200.922 127.112 200.922 128C200.922 128.888 200.614 129.636 199.998 130.244ZM197.754 130.136C198.354 130.136 198.858 129.932 199.266 129.524C199.674 129.116 199.878 128.608 199.878 128C199.878 127.392 199.674 126.884 199.266 126.476C198.858 126.068 198.354 125.864 197.754 125.864C197.162 125.864 196.662 126.068 196.254 126.476C195.846 126.884 195.642 127.392 195.642 128C195.642 128.608 195.846 129.116 196.254 129.524C196.662 129.932 197.162 130.136 197.754 130.136ZM205.134 123.452C204.078 123.364 203.55 123.82 203.55 124.82V125H205.134V126.008H203.55V131H202.506V126.008H201.546V125H202.506V124.82C202.506 124.012 202.73 123.4 203.178 122.984C203.634 122.568 204.286 122.388 205.134 122.444V123.452ZM217.378 126.836V127.34C217.378 128.436 217.002 129.348 216.25 130.076C215.498 130.796 214.502 131.156 213.262 131.156C211.982 131.156 210.922 130.736 210.082 129.896C209.25 129.048 208.834 128.016 208.834 126.8C208.834 125.584 209.25 124.556 210.082 123.716C210.922 122.868 211.974 122.444 213.238 122.444C214.014 122.444 214.726 122.632 215.374 123.008C216.022 123.376 216.522 123.864 216.874 124.472L215.914 125.036C215.674 124.58 215.31 124.216 214.822 123.944C214.342 123.664 213.81 123.524 213.226 123.524C212.266 123.524 211.478 123.84 210.862 124.472C210.246 125.096 209.938 125.872 209.938 126.8C209.938 127.728 210.246 128.504 210.862 129.128C211.486 129.752 212.29 130.064 213.274 130.064C214.114 130.064 214.794 129.86 215.314 129.452C215.834 129.036 216.15 128.5 216.262 127.844H213.178V126.836H217.378ZM223.811 130.244C223.195 130.852 222.447 131.156 221.567 131.156C220.687 131.156 219.939 130.852 219.323 130.244C218.715 129.636 218.411 128.888 218.411 128C218.411 127.112 218.715 126.364 219.323 125.756C219.939 125.148 220.687 124.844 221.567 124.844C222.447 124.844 223.195 125.148 223.811 125.756C224.427 126.364 224.735 127.112 224.735 128C224.735 128.888 224.427 129.636 223.811 130.244ZM221.567 130.136C222.167 130.136 222.671 129.932 223.079 129.524C223.487 129.116 223.691 128.608 223.691 128C223.691 127.392 223.487 126.884 223.079 126.476C222.671 126.068 222.167 125.864 221.567 125.864C220.975 125.864 220.475 126.068 220.067 126.476C219.659 126.884 219.455 127.392 219.455 128C219.455 128.608 219.659 129.116 220.067 129.524C220.475 129.932 220.975 130.136 221.567 130.136ZM231.054 122.6H232.098V131H231.054V129.968C230.534 130.76 229.778 131.156 228.786 131.156C227.946 131.156 227.23 130.852 226.638 130.244C226.046 129.628 225.75 128.88 225.75 128C225.75 127.12 226.046 126.376 226.638 125.768C227.23 125.152 227.946 124.844 228.786 124.844C229.778 124.844 230.534 125.24 231.054 126.032V122.6ZM228.918 130.148C229.526 130.148 230.034 129.944 230.442 129.536C230.85 129.12 231.054 128.608 231.054 128C231.054 127.392 230.85 126.884 230.442 126.476C230.034 126.06 229.526 125.852 228.918 125.852C228.318 125.852 227.814 126.06 227.406 126.476C226.998 126.884 226.794 127.392 226.794 128C226.794 128.608 226.998 129.12 227.406 129.536C227.814 129.944 228.318 130.148 228.918 130.148Z" fill="#52525B"/>
<mask id="path-7-inside-1_11_473" fill="white">
<path d="M0 160H109.333V232H0V160Z"/>
</mask>
<path d="M108.333 160V232H110.333V160H108.333Z" fill="#F0EDE7" mask="url(#path-7-inside-1_11_473)"/>
<path d="M65.3627 180C65.7163 180 66.0554 179.86 66.3055 179.609C66.5555 179.359 66.696 179.02 66.696 178.667C66.696 178.313 66.5555 177.974 66.3055 177.724C66.0554 177.474 65.7163 177.333 65.3627 177.333H61.3627V176.667C61.3627 176.313 61.2222 175.974 60.9722 175.724C60.7221 175.474 60.383 175.333 60.0293 175.333C59.6757 175.333 59.3366 175.474 59.0865 175.724C58.8365 175.974 58.696 176.313 58.696 176.667V177.333H54.696C54.3424 177.333 54.0032 177.474 53.7532 177.724C53.5032 177.974 53.3627 178.313 53.3627 178.667C53.3627 179.02 53.5032 179.359 53.7532 179.609C54.0032 179.86 54.3424 180 54.696 180H61.6093C61.3077 181.226 60.7507 182.374 59.9747 183.369C59.6569 182.958 59.3759 182.519 59.1347 182.059C59.058 181.898 58.9497 181.754 58.8164 181.635C58.683 181.517 58.5272 181.426 58.3583 181.369C58.1893 181.312 58.0106 181.289 57.8327 181.302C57.6548 181.315 57.4814 181.364 57.3226 181.446C57.1639 181.527 57.0231 181.639 56.9086 181.776C56.7941 181.913 56.7082 182.071 56.656 182.242C56.6038 182.412 56.5863 182.592 56.6046 182.769C56.623 182.946 56.6767 183.118 56.7627 183.275C57.1221 183.969 57.551 184.624 58.0427 185.232C57.0749 185.935 55.9744 186.433 54.808 186.697C54.4866 186.767 54.2025 186.954 54.0103 187.221C53.8181 187.488 53.7313 187.816 53.7667 188.144C53.8021 188.471 53.9572 188.773 54.2021 188.993C54.447 189.212 54.7644 189.334 55.0933 189.333C55.1897 189.333 55.2858 189.323 55.38 189.303C57.0529 188.933 58.6222 188.195 59.9733 187.141C61.3357 188.195 62.915 188.933 64.5973 189.301C64.6919 189.323 64.7885 189.333 64.8853 189.333C65.2143 189.334 65.5317 189.212 65.7766 188.993C66.0215 188.773 66.1765 188.471 66.2119 188.144C66.2473 187.816 66.1606 187.488 65.9684 187.221C65.7762 186.954 65.4921 186.767 65.1707 186.697C63.9976 186.436 62.889 185.942 61.9107 185.244C63.1426 183.726 63.9726 181.923 64.324 180H65.3627ZM51.9893 174.343L49.6453 164.969C49.481 164.312 49.1014 163.728 48.567 163.31C48.0326 162.893 47.374 162.666 46.696 162.666C46.018 162.666 45.3594 162.893 44.825 163.31C44.2906 163.728 43.911 164.312 43.7467 164.969L41.404 174.343C41.36 174.513 41.3502 174.69 41.3751 174.864C41.4 175.039 41.459 175.206 41.5489 175.357C41.6388 175.508 41.7577 175.64 41.8988 175.745C42.0399 175.85 42.2004 175.927 42.371 175.969C42.5416 176.012 42.719 176.021 42.893 175.994C43.0669 175.968 43.234 175.908 43.3845 175.817C43.5351 175.726 43.6662 175.606 43.7702 175.464C43.8742 175.323 43.9492 175.162 43.9907 174.991L44.736 172H48.6547L49.4013 174.991C49.4429 175.162 49.5178 175.323 49.6218 175.464C49.7259 175.606 49.8569 175.726 50.0075 175.817C50.158 175.908 50.3251 175.968 50.499 175.994C50.673 176.021 50.8504 176.012 51.021 175.969C51.1916 175.927 51.3521 175.85 51.4932 175.745C51.6343 175.64 51.7532 175.508 51.8431 175.357C51.933 175.206 51.9921 175.039 52.0169 174.864C52.0418 174.69 52.0333 174.513 51.9893 174.343ZM45.4027 169.333L46.332 165.617C46.36 165.544 46.4099 165.48 46.4749 165.435C46.5399 165.39 46.617 165.366 46.696 165.366C46.775 165.366 46.8521 165.39 46.9171 165.435C46.9822 165.48 47.032 165.544 47.06 165.617L47.9893 169.333H45.4027Z" fill="#9A650C"/>
<path d="M20.2321 203.6H21.3481V212H20.2321V203.6ZM26.1503 205.844C26.8543 205.844 27.4183 206.068 27.8423 206.516C28.2663 206.956 28.4783 207.556 28.4783 208.316V212H27.4343V208.376C27.4343 207.888 27.3023 207.512 27.0383 207.248C26.7743 206.976 26.4103 206.84 25.9463 206.84C25.4263 206.84 25.0063 207.004 24.6863 207.332C24.3663 207.652 24.2063 208.148 24.2063 208.82V212H23.1623V206H24.2063V206.864C24.6303 206.184 25.2783 205.844 26.1503 205.844ZM37.3643 206H38.4803L36.0323 212.372C35.7763 213.052 35.4163 213.568 34.9523 213.92C34.4963 214.28 33.9683 214.44 33.3683 214.4V213.428C34.1043 213.484 34.6443 213.076 34.9883 212.204L35.0963 211.976L32.4803 206H33.5963L35.6363 210.704L37.3643 206ZM44.302 211.244C43.686 211.852 42.938 212.156 42.058 212.156C41.178 212.156 40.43 211.852 39.814 211.244C39.206 210.636 38.902 209.888 38.902 209C38.902 208.112 39.206 207.364 39.814 206.756C40.43 206.148 41.178 205.844 42.058 205.844C42.938 205.844 43.686 206.148 44.302 206.756C44.918 207.364 45.226 208.112 45.226 209C45.226 209.888 44.918 210.636 44.302 211.244ZM42.058 211.136C42.658 211.136 43.162 210.932 43.57 210.524C43.978 210.116 44.182 209.608 44.182 209C44.182 208.392 43.978 207.884 43.57 207.476C43.162 207.068 42.658 206.864 42.058 206.864C41.466 206.864 40.966 207.068 40.558 207.476C40.15 207.884 39.946 208.392 39.946 209C39.946 209.608 40.15 210.116 40.558 210.524C40.966 210.932 41.466 211.136 42.058 211.136ZM50.7171 206H51.7611V212H50.7171V211.136C50.2931 211.816 49.6451 212.156 48.7731 212.156C48.0691 212.156 47.5051 211.936 47.0811 211.496C46.6571 211.048 46.4451 210.444 46.4451 209.684V206H47.4891V209.624C47.4891 210.112 47.6211 210.492 47.8851 210.764C48.1491 211.028 48.5131 211.16 48.9771 211.16C49.4971 211.16 49.9171 211 50.2371 210.68C50.5571 210.352 50.7171 209.852 50.7171 209.18V206ZM54.5148 207.008C54.8588 206.264 55.4828 205.892 56.3868 205.892V206.984C55.8748 206.96 55.4348 207.096 55.0668 207.392C54.6988 207.688 54.5148 208.164 54.5148 208.82V212H53.4708V206H54.5148V207.008ZM61.8729 210.944H65.4969V212H60.7569V203.6H61.8729V210.944ZM71.4582 211.244C70.8422 211.852 70.0942 212.156 69.2142 212.156C68.3342 212.156 67.5862 211.852 66.9702 211.244C66.3622 210.636 66.0582 209.888 66.0582 209C66.0582 208.112 66.3622 207.364 66.9702 206.756C67.5862 206.148 68.3342 205.844 69.2142 205.844C70.0942 205.844 70.8422 206.148 71.4582 206.756C72.0742 207.364 72.3822 208.112 72.3822 209C72.3822 209.888 72.0742 210.636 71.4582 211.244ZM69.2142 211.136C69.8142 211.136 70.3182 210.932 70.7262 210.524C71.1342 210.116 71.3382 209.608 71.3382 209C71.3382 208.392 71.1342 207.884 70.7262 207.476C70.3182 207.068 69.8142 206.864 69.2142 206.864C68.6222 206.864 68.1222 207.068 67.7142 207.476C67.3062 207.884 67.1022 208.392 67.1022 209C67.1022 209.608 67.3062 210.116 67.7142 210.524C68.1222 210.932 68.6222 211.136 69.2142 211.136ZM76.5532 212.156C75.6492 212.156 74.8972 211.856 74.2972 211.256C73.6972 210.648 73.3972 209.896 73.3972 209C73.3972 208.104 73.6972 207.356 74.2972 206.756C74.8972 206.148 75.6492 205.844 76.5532 205.844C77.1452 205.844 77.6772 205.988 78.1492 206.276C78.6212 206.556 78.9732 206.936 79.2052 207.416L78.3292 207.92C78.1772 207.6 77.9412 207.344 77.6212 207.152C77.3092 206.96 76.9532 206.864 76.5532 206.864C75.9532 206.864 75.4492 207.068 75.0412 207.476C74.6412 207.884 74.4412 208.392 74.4412 209C74.4412 209.6 74.6412 210.104 75.0412 210.512C75.4492 210.92 75.9532 211.124 76.5532 211.124C76.9532 211.124 77.3132 211.032 77.6332 210.848C77.9532 210.656 78.1972 210.4 78.3652 210.08L79.2532 210.596C78.9972 211.068 78.6292 211.448 78.1492 211.736C77.6692 212.016 77.1372 212.156 76.5532 212.156ZM85.2902 206H86.3342V212H85.2902V210.968C84.7702 211.76 84.0142 212.156 83.0222 212.156C82.1822 212.156 81.4662 211.852 80.8742 211.244C80.2822 210.628 79.9862 209.88 79.9862 209C79.9862 208.12 80.2822 207.376 80.8742 206.768C81.4662 206.152 82.1822 205.844 83.0222 205.844C84.0142 205.844 84.7702 206.24 85.2902 207.032V206ZM83.1542 211.148C83.7622 211.148 84.2702 210.944 84.6782 210.536C85.0862 210.12 85.2902 209.608 85.2902 209C85.2902 208.392 85.0862 207.884 84.6782 207.476C84.2702 207.06 83.7622 206.852 83.1542 206.852C82.5542 206.852 82.0502 207.06 81.6422 207.476C81.2342 207.884 81.0302 208.392 81.0302 209C81.0302 209.608 81.2342 210.12 81.6422 210.536C82.0502 210.944 82.5542 211.148 83.1542 211.148ZM88.0363 212V203.24H89.0803V212H88.0363ZM27.9902 226.944H31.6142V228H26.8742V219.6H27.9902V226.944ZM37.4795 222H38.5235V228H37.4795V226.968C36.9595 227.76 36.2035 228.156 35.2115 228.156C34.3715 228.156 33.6555 227.852 33.0635 227.244C32.4715 226.628 32.1755 225.88 32.1755 225C32.1755 224.12 32.4715 223.376 33.0635 222.768C33.6555 222.152 34.3715 221.844 35.2115 221.844C36.2035 221.844 36.9595 222.24 37.4795 223.032V222ZM35.3435 227.148C35.9515 227.148 36.4595 226.944 36.8675 226.536C37.2755 226.12 37.4795 225.608 37.4795 225C37.4795 224.392 37.2755 223.884 36.8675 223.476C36.4595 223.06 35.9515 222.852 35.3435 222.852C34.7435 222.852 34.2395 223.06 33.8315 223.476C33.4235 223.884 33.2195 224.392 33.2195 225C33.2195 225.608 33.4235 226.12 33.8315 226.536C34.2395 226.944 34.7435 227.148 35.3435 227.148ZM43.2135 221.844C43.9175 221.844 44.4815 222.068 44.9055 222.516C45.3295 222.956 45.5415 223.556 45.5415 224.316V228H44.4975V224.376C44.4975 223.888 44.3655 223.512 44.1015 223.248C43.8375 222.976 43.4735 222.84 43.0095 222.84C42.4895 222.84 42.0695 223.004 41.7495 223.332C41.4295 223.652 41.2695 224.148 41.2695 224.82V228H40.2255V222H41.2695V222.864C41.6935 222.184 42.3415 221.844 43.2135 221.844ZM52.0992 222H53.1312V227.748C53.1312 228.636 52.8312 229.324 52.2312 229.812C51.6312 230.308 50.9112 230.556 50.0712 230.556C49.3992 230.556 48.8192 230.428 48.3312 230.172C47.8432 229.924 47.4752 229.564 47.2272 229.092L48.1392 228.576C48.4672 229.248 49.1192 229.584 50.0952 229.584C50.7192 229.584 51.2072 229.42 51.5592 229.092C51.9192 228.764 52.0992 228.316 52.0992 227.748V226.896C51.5712 227.696 50.8192 228.096 49.8432 228.096C48.9872 228.096 48.2632 227.792 47.6712 227.184C47.0792 226.576 46.7832 225.836 46.7832 224.964C46.7832 224.092 47.0792 223.356 47.6712 222.756C48.2632 222.148 48.9872 221.844 49.8432 221.844C50.8272 221.844 51.5792 222.24 52.0992 223.032V222ZM48.4392 226.488C48.8472 226.896 49.3552 227.1 49.9632 227.1C50.5712 227.1 51.0792 226.896 51.4872 226.488C51.8952 226.08 52.0992 225.572 52.0992 224.964C52.0992 224.364 51.8952 223.86 51.4872 223.452C51.0792 223.044 50.5712 222.84 49.9632 222.84C49.3552 222.84 48.8472 223.044 48.4392 223.452C48.0312 223.86 47.8272 224.364 47.8272 224.964C47.8272 225.572 48.0312 226.08 48.4392 226.488ZM58.9733 222H60.0173V228H58.9733V227.136C58.5493 227.816 57.9013 228.156 57.0293 228.156C56.3253 228.156 55.7613 227.936 55.3373 227.496C54.9133 227.048 54.7013 226.444 54.7013 225.684V222H55.7453V225.624C55.7453 226.112 55.8773 226.492 56.1413 226.764C56.4053 227.028 56.7693 227.16 57.2333 227.16C57.7533 227.16 58.1733 227 58.4933 226.68C58.8133 226.352 58.9733 225.852 58.9733 225.18V222ZM66.695 222H67.739V228H66.695V226.968C66.175 227.76 65.419 228.156 64.427 228.156C63.587 228.156 62.871 227.852 62.279 227.244C61.687 226.628 61.391 225.88 61.391 225C61.391 224.12 61.687 223.376 62.279 222.768C62.871 222.152 63.587 221.844 64.427 221.844C65.419 221.844 66.175 222.24 66.695 223.032V222ZM64.559 227.148C65.167 227.148 65.675 226.944 66.083 226.536C66.491 226.12 66.695 225.608 66.695 225C66.695 224.392 66.491 223.884 66.083 223.476C65.675 223.06 65.167 222.852 64.559 222.852C63.959 222.852 63.455 223.06 63.047 223.476C62.639 223.884 62.435 224.392 62.435 225C62.435 225.608 62.639 226.12 63.047 226.536C63.455 226.944 63.959 227.148 64.559 227.148ZM74.421 222H75.453V227.748C75.453 228.636 75.153 229.324 74.553 229.812C73.953 230.308 73.233 230.556 72.393 230.556C71.721 230.556 71.141 230.428 70.653 230.172C70.165 229.924 69.797 229.564 69.549 229.092L70.461 228.576C70.789 229.248 71.441 229.584 72.417 229.584C73.041 229.584 73.529 229.42 73.881 229.092C74.241 228.764 74.421 228.316 74.421 227.748V226.896C73.893 227.696 73.141 228.096 72.165 228.096C71.309 228.096 70.585 227.792 69.993 227.184C69.401 226.576 69.105 225.836 69.105 224.964C69.105 224.092 69.401 223.356 69.993 222.756C70.585 222.148 71.309 221.844 72.165 221.844C73.149 221.844 73.901 222.24 74.421 223.032V222ZM70.761 226.488C71.169 226.896 71.677 227.1 72.285 227.1C72.893 227.1 73.401 226.896 73.809 226.488C74.217 226.08 74.421 225.572 74.421 224.964C74.421 224.364 74.217 223.86 73.809 223.452C73.401 223.044 72.893 222.84 72.285 222.84C71.677 222.84 71.169 223.044 70.761 223.452C70.353 223.86 70.149 224.364 70.149 224.964C70.149 225.572 70.353 226.08 70.761 226.488ZM77.8871 225.48C77.9911 226.016 78.2351 226.432 78.6191 226.728C79.0111 227.024 79.4911 227.172 80.0591 227.172C80.8511 227.172 81.4271 226.88 81.7871 226.296L82.6751 226.8C82.0911 227.704 81.2111 228.156 80.0351 228.156C79.0831 228.156 78.3071 227.86 77.7071 227.268C77.1151 226.668 76.8191 225.912 76.8191 225C76.8191 224.096 77.1111 223.344 77.6951 222.744C78.2791 222.144 79.0351 221.844 79.9631 221.844C80.8431 221.844 81.5591 222.156 82.1111 222.78C82.6711 223.396 82.9511 224.14 82.9511 225.012C82.9511 225.164 82.9391 225.32 82.9151 225.48H77.8871ZM79.9631 222.828C79.4031 222.828 78.9391 222.988 78.5711 223.308C78.2031 223.62 77.9751 224.04 77.8871 224.568H81.8951C81.8071 224 81.5831 223.568 81.2231 223.272C80.8631 222.976 80.4431 222.828 79.9631 222.828Z" fill="#52525B"/>
<mask id="path-11-inside-2_11_473" fill="white">
<path d="M109.333 160H218.667V232H109.333V160Z"/>
</mask>
<path d="M217.667 160V232H219.667V160H217.667Z" fill="#F0EDE7" mask="url(#path-11-inside-2_11_473)"/>
<path d="M164.967 160H163.033C162.468 160 162.015 160.468 162.033 161.032L162.969 190.032C162.986 190.572 163.429 191 163.968 191H164.032C164.571 191 165.014 190.572 165.031 190.032L165.967 161.032C165.985 160.468 165.532 160 164.967 160Z" fill="#9A650C"/>
<path d="M176 174V172C176 171.448 175.552 171 175 171H153C152.448 171 152 171.448 152 172V174C152 174.552 152.448 175 153 175H175C175.552 175 176 174.552 176 174Z" fill="#9A650C"/>
<path d="M132.74 207.644C133.124 207.828 133.428 208.092 133.652 208.436C133.884 208.78 134 209.176 134 209.624C134 210.296 133.764 210.86 133.292 211.316C132.82 211.772 132.244 212 131.564 212H127.94V203.6H131.3C131.956 203.6 132.512 203.82 132.968 204.26C133.424 204.7 133.652 205.244 133.652 205.892C133.652 206.636 133.348 207.22 132.74 207.644ZM131.3 204.644H129.056V207.212H131.3C131.652 207.212 131.948 207.088 132.188 206.84C132.428 206.592 132.548 206.288 132.548 205.928C132.548 205.576 132.424 205.276 132.176 205.028C131.936 204.772 131.644 204.644 131.3 204.644ZM131.564 210.956C131.94 210.956 132.256 210.824 132.512 210.56C132.768 210.296 132.896 209.972 132.896 209.588C132.896 209.212 132.764 208.892 132.5 208.628C132.244 208.364 131.932 208.232 131.564 208.232H129.056V210.956H131.564ZM136.102 209.48C136.206 210.016 136.45 210.432 136.834 210.728C137.226 211.024 137.706 211.172 138.274 211.172C139.066 211.172 139.642 210.88 140.002 210.296L140.89 210.8C140.306 211.704 139.426 212.156 138.25 212.156C137.298 212.156 136.522 211.86 135.922 211.268C135.33 210.668 135.034 209.912 135.034 209C135.034 208.096 135.326 207.344 135.91 206.744C136.494 206.144 137.25 205.844 138.178 205.844C139.058 205.844 139.774 206.156 140.326 206.78C140.886 207.396 141.166 208.14 141.166 209.012C141.166 209.164 141.154 209.32 141.13 209.48H136.102ZM138.178 206.828C137.618 206.828 137.154 206.988 136.786 207.308C136.418 207.62 136.19 208.04 136.102 208.568H140.11C140.022 208 139.798 207.568 139.438 207.272C139.078 206.976 138.658 206.828 138.178 206.828ZM143.152 207.62C143.152 207.852 143.268 208.04 143.5 208.184C143.732 208.32 144.012 208.432 144.34 208.52C144.668 208.6 144.996 208.696 145.324 208.808C145.652 208.912 145.932 209.096 146.164 209.36C146.396 209.616 146.512 209.948 146.512 210.356C146.512 210.9 146.3 211.336 145.876 211.664C145.46 211.992 144.924 212.156 144.268 212.156C143.684 212.156 143.184 212.028 142.768 211.772C142.352 211.516 142.056 211.176 141.88 210.752L142.78 210.236C142.876 210.524 143.056 210.752 143.32 210.92C143.584 211.088 143.9 211.172 144.268 211.172C144.612 211.172 144.896 211.108 145.12 210.98C145.344 210.844 145.456 210.636 145.456 210.356C145.456 210.124 145.34 209.94 145.108 209.804C144.876 209.66 144.596 209.548 144.268 209.468C143.94 209.38 143.612 209.28 143.284 209.168C142.956 209.056 142.676 208.872 142.444 208.616C142.212 208.36 142.096 208.032 142.096 207.632C142.096 207.112 142.296 206.684 142.696 206.348C143.104 206.012 143.612 205.844 144.22 205.844C144.708 205.844 145.14 205.956 145.516 206.18C145.9 206.396 146.188 206.7 146.38 207.092L145.504 207.584C145.288 207.072 144.86 206.816 144.22 206.816C143.924 206.816 143.672 206.888 143.464 207.032C143.256 207.168 143.152 207.364 143.152 207.62ZM150.898 207.008H149.302V210.26C149.302 210.556 149.358 210.768 149.47 210.896C149.59 211.016 149.77 211.08 150.01 211.088C150.25 211.088 150.546 211.08 150.898 211.064V212C149.986 212.12 149.318 212.048 148.894 211.784C148.47 211.512 148.258 211.004 148.258 210.26V207.008H147.07V206H148.258V204.632L149.302 204.32V206H150.898V207.008ZM159.466 212.156C158.194 212.156 157.142 211.736 156.31 210.896C155.486 210.056 155.074 209.024 155.074 207.8C155.074 206.576 155.486 205.544 156.31 204.704C157.142 203.864 158.194 203.444 159.466 203.444C160.234 203.444 160.938 203.628 161.578 203.996C162.226 204.364 162.73 204.86 163.09 205.484L162.118 206.048C161.878 205.584 161.518 205.216 161.038 204.944C160.566 204.664 160.042 204.524 159.466 204.524C158.498 204.524 157.706 204.836 157.09 205.46C156.482 206.084 156.178 206.864 156.178 207.8C156.178 208.728 156.482 209.504 157.09 210.128C157.706 210.752 158.498 211.064 159.466 211.064C160.042 211.064 160.566 210.928 161.038 210.656C161.518 210.376 161.878 210.008 162.118 209.552L163.09 210.104C162.738 210.728 162.238 211.228 161.59 211.604C160.942 211.972 160.234 212.156 159.466 212.156ZM168.541 206H169.585V212H168.541V211.136C168.117 211.816 167.469 212.156 166.597 212.156C165.893 212.156 165.329 211.936 164.905 211.496C164.481 211.048 164.269 210.444 164.269 209.684V206H165.313V209.624C165.313 210.112 165.445 210.492 165.709 210.764C165.973 211.028 166.337 211.16 166.801 211.16C167.321 211.16 167.741 211 168.061 210.68C168.381 210.352 168.541 209.852 168.541 209.18V206ZM172.339 207.008C172.683 206.264 173.307 205.892 174.211 205.892V206.984C173.699 206.96 173.259 207.096 172.891 207.392C172.523 207.688 172.339 208.164 172.339 208.82V212H171.295V206H172.339V207.008ZM179.992 206H181.036V212H179.992V210.968C179.472 211.76 178.716 212.156 177.724 212.156C176.884 212.156 176.168 211.852 175.576 211.244C174.984 210.628 174.688 209.88 174.688 209C174.688 208.12 174.984 207.376 175.576 206.768C176.168 206.152 176.884 205.844 177.724 205.844C178.716 205.844 179.472 206.24 179.992 207.032V206ZM177.856 211.148C178.464 211.148 178.972 210.944 179.38 210.536C179.788 210.12 179.992 209.608 179.992 209C179.992 208.392 179.788 207.884 179.38 207.476C178.972 207.06 178.464 206.852 177.856 206.852C177.256 206.852 176.752 207.06 176.344 207.476C175.936 207.884 175.732 208.392 175.732 209C175.732 209.608 175.936 210.12 176.344 210.536C176.752 210.944 177.256 211.148 177.856 211.148ZM186.002 207.008H184.406V210.26C184.406 210.556 184.462 210.768 184.574 210.896C184.694 211.016 184.874 211.08 185.114 211.088C185.354 211.088 185.65 211.08 186.002 211.064V212C185.09 212.12 184.422 212.048 183.998 211.784C183.574 211.512 183.362 211.004 183.362 210.26V207.008H182.174V206H183.362V204.632L184.406 204.32V206H186.002V207.008ZM187.786 209.48C187.89 210.016 188.134 210.432 188.518 210.728C188.91 211.024 189.39 211.172 189.958 211.172C190.75 211.172 191.326 210.88 191.686 210.296L192.574 210.8C191.99 211.704 191.11 212.156 189.934 212.156C188.982 212.156 188.206 211.86 187.606 211.268C187.014 210.668 186.718 209.912 186.718 209C186.718 208.096 187.01 207.344 187.594 206.744C188.178 206.144 188.934 205.844 189.862 205.844C190.742 205.844 191.458 206.156 192.01 206.78C192.57 207.396 192.85 208.14 192.85 209.012C192.85 209.164 192.838 209.32 192.814 209.48H187.786ZM189.862 206.828C189.302 206.828 188.838 206.988 188.47 207.308C188.102 207.62 187.874 208.04 187.786 208.568H191.794C191.706 208 191.482 207.568 191.122 207.272C190.762 206.976 190.342 206.828 189.862 206.828ZM199.127 203.6H200.171V212H199.127V210.968C198.607 211.76 197.851 212.156 196.859 212.156C196.019 212.156 195.303 211.852 194.711 211.244C194.119 210.628 193.823 209.88 193.823 209C193.823 208.12 194.119 207.376 194.711 206.768C195.303 206.152 196.019 205.844 196.859 205.844C197.851 205.844 198.607 206.24 199.127 207.032V203.6ZM196.991 211.148C197.599 211.148 198.107 210.944 198.515 210.536C198.923 210.12 199.127 209.608 199.127 209C199.127 208.392 198.923 207.884 198.515 207.476C198.107 207.06 197.599 206.852 196.991 206.852C196.391 206.852 195.887 207.06 195.479 207.476C195.071 207.884 194.867 208.392 194.867 209C194.867 209.608 195.071 210.12 195.479 210.536C195.887 210.944 196.391 211.148 196.991 211.148ZM143.409 228.156C142.625 228.156 141.953 227.972 141.393 227.604C140.841 227.236 140.453 226.732 140.229 226.092L141.189 225.54C141.517 226.556 142.265 227.064 143.433 227.064C144.009 227.064 144.449 226.948 144.753 226.716C145.057 226.476 145.209 226.16 145.209 225.768C145.209 225.368 145.057 225.068 144.753 224.868C144.449 224.668 143.941 224.456 143.229 224.232C142.877 224.12 142.609 224.032 142.425 223.968C142.241 223.896 142.009 223.792 141.729 223.656C141.457 223.512 141.253 223.368 141.117 223.224C140.981 223.072 140.857 222.876 140.745 222.636C140.641 222.396 140.589 222.124 140.589 221.82C140.589 221.092 140.845 220.516 141.357 220.092C141.869 219.66 142.493 219.444 143.229 219.444C143.893 219.444 144.469 219.612 144.957 219.948C145.453 220.284 145.825 220.728 146.073 221.28L145.137 221.82C144.777 220.956 144.141 220.524 143.229 220.524C142.773 220.524 142.405 220.636 142.125 220.86C141.845 221.084 141.705 221.388 141.705 221.772C141.705 222.14 141.837 222.42 142.101 222.612C142.365 222.804 142.821 223.004 143.469 223.212C143.701 223.284 143.865 223.336 143.961 223.368C144.057 223.4 144.205 223.456 144.405 223.536C144.613 223.616 144.765 223.68 144.861 223.728C144.957 223.776 145.085 223.844 145.245 223.932C145.413 224.02 145.537 224.104 145.617 224.184C145.697 224.264 145.789 224.364 145.893 224.484C146.005 224.596 146.085 224.712 146.133 224.832C146.181 224.952 146.221 225.092 146.253 225.252C146.293 225.404 146.313 225.568 146.313 225.744C146.313 226.48 146.045 227.068 145.509 227.508C144.973 227.94 144.273 228.156 143.409 228.156ZM148.52 225.48C148.624 226.016 148.868 226.432 149.252 226.728C149.644 227.024 150.124 227.172 150.692 227.172C151.484 227.172 152.06 226.88 152.42 226.296L153.308 226.8C152.724 227.704 151.844 228.156 150.668 228.156C149.716 228.156 148.94 227.86 148.34 227.268C147.748 226.668 147.452 225.912 147.452 225C147.452 224.096 147.744 223.344 148.328 222.744C148.912 222.144 149.668 221.844 150.596 221.844C151.476 221.844 152.192 222.156 152.744 222.78C153.304 223.396 153.584 224.14 153.584 225.012C153.584 225.164 153.572 225.32 153.548 225.48H148.52ZM150.596 222.828C150.036 222.828 149.572 222.988 149.204 223.308C148.836 223.62 148.608 224.04 148.52 224.568H152.528C152.44 224 152.216 223.568 151.856 223.272C151.496 222.976 151.076 222.828 150.596 222.828ZM155.948 223.008C156.292 222.264 156.916 221.892 157.82 221.892V222.984C157.308 222.96 156.868 223.096 156.5 223.392C156.132 223.688 155.948 224.164 155.948 224.82V228H154.904V222H155.948V223.008ZM165.442 221.844C166.114 221.844 166.658 222.064 167.074 222.504C167.49 222.936 167.698 223.524 167.698 224.268V228H166.654V224.304C166.654 223.84 166.534 223.48 166.294 223.224C166.054 222.968 165.734 222.84 165.334 222.84C164.886 222.84 164.526 222.992 164.254 223.296C163.99 223.592 163.858 224.048 163.858 224.664V228H162.814V224.304C162.814 223.84 162.698 223.48 162.466 223.224C162.242 222.968 161.934 222.84 161.542 222.84C161.102 222.84 160.734 222.992 160.438 223.296C160.15 223.6 160.006 224.056 160.006 224.664V228H158.962V222H160.006V222.804C160.414 222.164 161.01 221.844 161.794 221.844C162.602 221.844 163.19 222.184 163.558 222.864C163.974 222.184 164.602 221.844 165.442 221.844ZM174.33 227.244C173.714 227.852 172.966 228.156 172.086 228.156C171.206 228.156 170.458 227.852 169.842 227.244C169.234 226.636 168.93 225.888 168.93 225C168.93 224.112 169.234 223.364 169.842 222.756C170.458 222.148 171.206 221.844 172.086 221.844C172.966 221.844 173.714 222.148 174.33 222.756C174.946 223.364 175.254 224.112 175.254 225C175.254 225.888 174.946 226.636 174.33 227.244ZM172.086 227.136C172.686 227.136 173.19 226.932 173.598 226.524C174.006 226.116 174.21 225.608 174.21 225C174.21 224.392 174.006 223.884 173.598 223.476C173.19 223.068 172.686 222.864 172.086 222.864C171.494 222.864 170.994 223.068 170.586 223.476C170.178 223.884 169.974 224.392 169.974 225C169.974 225.608 170.178 226.116 170.586 226.524C170.994 226.932 171.494 227.136 172.086 227.136ZM179.593 221.844C180.297 221.844 180.861 222.068 181.285 222.516C181.709 222.956 181.921 223.556 181.921 224.316V228H180.877V224.376C180.877 223.888 180.745 223.512 180.481 223.248C180.217 222.976 179.853 222.84 179.389 222.84C178.869 222.84 178.449 223.004 178.129 223.332C177.809 223.652 177.649 224.148 177.649 224.82V228H176.605V222H177.649V222.864C178.073 222.184 178.721 221.844 179.593 221.844ZM184.399 223.62C184.399 223.852 184.515 224.04 184.747 224.184C184.979 224.32 185.259 224.432 185.587 224.52C185.915 224.6 186.243 224.696 186.571 224.808C186.899 224.912 187.179 225.096 187.411 225.36C187.643 225.616 187.759 225.948 187.759 226.356C187.759 226.9 187.547 227.336 187.123 227.664C186.707 227.992 186.171 228.156 185.515 228.156C184.931 228.156 184.431 228.028 184.015 227.772C183.599 227.516 183.303 227.176 183.127 226.752L184.027 226.236C184.123 226.524 184.303 226.752 184.567 226.92C184.831 227.088 185.147 227.172 185.515 227.172C185.859 227.172 186.143 227.108 186.367 226.98C186.591 226.844 186.703 226.636 186.703 226.356C186.703 226.124 186.587 225.94 186.355 225.804C186.123 225.66 185.843 225.548 185.515 225.468C185.187 225.38 184.859 225.28 184.531 225.168C184.203 225.056 183.923 224.872 183.691 224.616C183.459 224.36 183.343 224.032 183.343 223.632C183.343 223.112 183.543 222.684 183.943 222.348C184.351 222.012 184.859 221.844 185.467 221.844C185.955 221.844 186.387 221.956 186.763 222.18C187.147 222.396 187.435 222.7 187.627 223.092L186.751 223.584C186.535 223.072 186.107 222.816 185.467 222.816C185.171 222.816 184.919 222.888 184.711 223.032C184.503 223.168 184.399 223.364 184.399 223.62Z" fill="#52525B"/>
<path d="M273.333 162.667C265.979 162.667 260 168.651 260 176C260 183.355 265.979 189.333 273.333 189.333C280.683 189.333 286.667 183.355 286.667 176C286.667 168.651 280.683 162.667 273.333 162.667ZM278.475 176.421L270.981 182.288C270.885 182.363 270.773 182.4 270.656 182.4C270.586 182.401 270.516 182.387 270.451 182.36C270.386 182.334 270.327 182.294 270.278 182.245C270.228 182.195 270.189 182.136 270.162 182.071C270.136 182.006 270.122 181.937 270.123 181.867V170.139C270.123 169.936 270.235 169.749 270.421 169.659C270.511 169.615 270.611 169.598 270.71 169.608C270.809 169.619 270.903 169.656 270.981 169.717L278.475 175.584C278.538 175.634 278.589 175.698 278.624 175.77C278.659 175.843 278.677 175.922 278.677 176.003C278.677 176.083 278.659 176.163 278.624 176.235C278.589 176.308 278.538 176.371 278.475 176.421Z" fill="#9A650C"/>
<path d="M258.723 203.6H259.683V212H258.579V204.8L256.791 205.328L256.515 204.368L258.723 203.6ZM266.912 210.968C266.344 211.76 265.548 212.156 264.524 212.156C263.5 212.156 262.704 211.76 262.136 210.968C261.568 210.176 261.284 209.12 261.284 207.8C261.284 206.48 261.568 205.424 262.136 204.632C262.704 203.84 263.5 203.444 264.524 203.444C265.548 203.444 266.344 203.84 266.912 204.632C267.48 205.424 267.764 206.48 267.764 207.8C267.764 209.12 267.48 210.176 266.912 210.968ZM262.952 210.212C263.32 210.78 263.844 211.064 264.524 211.064C265.204 211.064 265.728 210.78 266.096 210.212C266.472 209.644 266.66 208.84 266.66 207.8C266.66 206.76 266.472 205.956 266.096 205.388C265.728 204.812 265.204 204.524 264.524 204.524C263.844 204.524 263.32 204.808 262.952 205.376C262.584 205.944 262.4 206.752 262.4 207.8C262.4 208.84 262.584 209.644 262.952 210.212ZM274.591 210.968C274.023 211.76 273.227 212.156 272.203 212.156C271.179 212.156 270.383 211.76 269.815 210.968C269.247 210.176 268.963 209.12 268.963 207.8C268.963 206.48 269.247 205.424 269.815 204.632C270.383 203.84 271.179 203.444 272.203 203.444C273.227 203.444 274.023 203.84 274.591 204.632C275.159 205.424 275.443 206.48 275.443 207.8C275.443 209.12 275.159 210.176 274.591 210.968ZM270.631 210.212C270.999 210.78 271.523 211.064 272.203 211.064C272.883 211.064 273.407 210.78 273.775 210.212C274.151 209.644 274.339 208.84 274.339 207.8C274.339 206.76 274.151 205.956 273.775 205.388C273.407 204.812 272.883 204.524 272.203 204.524C271.523 204.524 270.999 204.808 270.631 205.376C270.263 205.944 270.079 206.752 270.079 207.8C270.079 208.84 270.263 209.644 270.631 210.212ZM282.27 210.968C281.702 211.76 280.906 212.156 279.882 212.156C278.858 212.156 278.062 211.76 277.494 210.968C276.926 210.176 276.642 209.12 276.642 207.8C276.642 206.48 276.926 205.424 277.494 204.632C278.062 203.84 278.858 203.444 279.882 203.444C280.906 203.444 281.702 203.84 282.27 204.632C282.838 205.424 283.122 206.48 283.122 207.8C283.122 209.12 282.838 210.176 282.27 210.968ZM278.31 210.212C278.678 210.78 279.202 211.064 279.882 211.064C280.562 211.064 281.086 210.78 281.454 210.212C281.83 209.644 282.018 208.84 282.018 207.8C282.018 206.76 281.83 205.956 281.454 205.388C281.086 204.812 280.562 204.524 279.882 204.524C279.202 204.524 278.678 204.808 278.31 205.376C277.942 205.944 277.758 206.752 277.758 207.8C277.758 208.84 277.942 209.644 278.31 210.212ZM289.637 207.296V208.292H287.549V210.38H286.553V208.292H284.477V207.296H286.553V205.22H287.549V207.296H289.637ZM234.54 228L231.54 219.6H232.74L235.176 226.608L237.6 219.6H238.812L235.8 228H234.54ZM240.103 220.908C239.903 220.908 239.735 220.84 239.599 220.704C239.463 220.568 239.395 220.404 239.395 220.212C239.395 220.02 239.463 219.856 239.599 219.72C239.735 219.576 239.903 219.504 240.103 219.504C240.295 219.504 240.459 219.576 240.595 219.72C240.731 219.856 240.799 220.02 240.799 220.212C240.799 220.404 240.731 220.568 240.595 220.704C240.459 220.84 240.295 220.908 240.103 220.908ZM239.575 228V222H240.619V228H239.575ZM247.3 219.6H248.344V228H247.3V226.968C246.78 227.76 246.024 228.156 245.032 228.156C244.192 228.156 243.476 227.852 242.884 227.244C242.292 226.628 241.996 225.88 241.996 225C241.996 224.12 242.292 223.376 242.884 222.768C243.476 222.152 244.192 221.844 245.032 221.844C246.024 221.844 246.78 222.24 247.3 223.032V219.6ZM245.164 227.148C245.772 227.148 246.28 226.944 246.688 226.536C247.096 226.12 247.3 225.608 247.3 225C247.3 224.392 247.096 223.884 246.688 223.476C246.28 223.06 245.772 222.852 245.164 222.852C244.564 222.852 244.06 223.06 243.652 223.476C243.244 223.884 243.04 224.392 243.04 225C243.04 225.608 243.244 226.12 243.652 226.536C244.06 226.944 244.564 227.148 245.164 227.148ZM250.778 225.48C250.882 226.016 251.126 226.432 251.51 226.728C251.902 227.024 252.382 227.172 252.95 227.172C253.742 227.172 254.318 226.88 254.678 226.296L255.566 226.8C254.982 227.704 254.102 228.156 252.926 228.156C251.974 228.156 251.198 227.86 250.598 227.268C250.006 226.668 249.71 225.912 249.71 225C249.71 224.096 250.002 223.344 250.586 222.744C251.17 222.144 251.926 221.844 252.854 221.844C253.734 221.844 254.45 222.156 255.002 222.78C255.562 223.396 255.842 224.14 255.842 225.012C255.842 225.164 255.83 225.32 255.806 225.48H250.778ZM252.854 222.828C252.294 222.828 251.83 222.988 251.462 223.308C251.094 223.62 250.866 224.04 250.778 224.568H254.786C254.698 224 254.474 223.568 254.114 223.272C253.754 222.976 253.334 222.828 252.854 222.828ZM262.214 227.244C261.598 227.852 260.85 228.156 259.97 228.156C259.09 228.156 258.342 227.852 257.726 227.244C257.118 226.636 256.814 225.888 256.814 225C256.814 224.112 257.118 223.364 257.726 222.756C258.342 222.148 259.09 221.844 259.97 221.844C260.85 221.844 261.598 222.148 262.214 222.756C262.83 223.364 263.138 224.112 263.138 225C263.138 225.888 262.83 226.636 262.214 227.244ZM259.97 227.136C260.57 227.136 261.074 226.932 261.482 226.524C261.89 226.116 262.094 225.608 262.094 225C262.094 224.392 261.89 223.884 261.482 223.476C261.074 223.068 260.57 222.864 259.97 222.864C259.378 222.864 258.878 223.068 258.47 223.476C258.062 223.884 257.858 224.392 257.858 225C257.858 225.608 258.062 226.116 258.47 226.524C258.878 226.932 259.378 227.136 259.97 227.136ZM270.43 228.156C269.646 228.156 268.974 227.972 268.414 227.604C267.862 227.236 267.474 226.732 267.25 226.092L268.21 225.54C268.538 226.556 269.286 227.064 270.454 227.064C271.03 227.064 271.47 226.948 271.774 226.716C272.078 226.476 272.23 226.16 272.23 225.768C272.23 225.368 272.078 225.068 271.774 224.868C271.47 224.668 270.962 224.456 270.25 224.232C269.898 224.12 269.63 224.032 269.446 223.968C269.262 223.896 269.03 223.792 268.75 223.656C268.478 223.512 268.274 223.368 268.138 223.224C268.002 223.072 267.878 222.876 267.766 222.636C267.662 222.396 267.61 222.124 267.61 221.82C267.61 221.092 267.866 220.516 268.378 220.092C268.89 219.66 269.514 219.444 270.25 219.444C270.914 219.444 271.49 219.612 271.978 219.948C272.474 220.284 272.846 220.728 273.094 221.28L272.158 221.82C271.798 220.956 271.162 220.524 270.25 220.524C269.794 220.524 269.426 220.636 269.146 220.86C268.866 221.084 268.726 221.388 268.726 221.772C268.726 222.14 268.858 222.42 269.122 222.612C269.386 222.804 269.842 223.004 270.49 223.212C270.722 223.284 270.886 223.336 270.982 223.368C271.078 223.4 271.226 223.456 271.426 223.536C271.634 223.616 271.786 223.68 271.882 223.728C271.978 223.776 272.106 223.844 272.266 223.932C272.434 224.02 272.558 224.104 272.638 224.184C272.718 224.264 272.81 224.364 272.914 224.484C273.026 224.596 273.106 224.712 273.154 224.832C273.202 224.952 273.242 225.092 273.274 225.252C273.314 225.404 273.334 225.568 273.334 225.744C273.334 226.48 273.066 227.068 272.53 227.508C271.994 227.94 271.294 228.156 270.43 228.156ZM275.54 225.48C275.644 226.016 275.888 226.432 276.272 226.728C276.664 227.024 277.144 227.172 277.712 227.172C278.504 227.172 279.08 226.88 279.44 226.296L280.328 226.8C279.744 227.704 278.864 228.156 277.688 228.156C276.736 228.156 275.96 227.86 275.36 227.268C274.768 226.668 274.472 225.912 274.472 225C274.472 224.096 274.764 223.344 275.348 222.744C275.932 222.144 276.688 221.844 277.616 221.844C278.496 221.844 279.212 222.156 279.764 222.78C280.324 223.396 280.604 224.14 280.604 225.012C280.604 225.164 280.592 225.32 280.568 225.48H275.54ZM277.616 222.828C277.056 222.828 276.592 222.988 276.224 223.308C275.856 223.62 275.628 224.04 275.54 224.568H279.548C279.46 224 279.236 223.568 278.876 223.272C278.516 222.976 278.096 222.828 277.616 222.828ZM282.968 223.008C283.312 222.264 283.936 221.892 284.84 221.892V222.984C284.328 222.96 283.888 223.096 283.52 223.392C283.152 223.688 282.968 224.164 282.968 224.82V228H281.924V222H282.968V223.008ZM292.462 221.844C293.134 221.844 293.678 222.064 294.094 222.504C294.51 222.936 294.718 223.524 294.718 224.268V228H293.674V224.304C293.674 223.84 293.554 223.48 293.314 223.224C293.074 222.968 292.754 222.84 292.354 222.84C291.906 222.84 291.546 222.992 291.274 223.296C291.01 223.592 290.878 224.048 290.878 224.664V228H289.834V224.304C289.834 223.84 289.718 223.48 289.486 223.224C289.262 222.968 288.954 222.84 288.562 222.84C288.122 222.84 287.754 222.992 287.458 223.296C287.17 223.6 287.026 224.056 287.026 224.664V228H285.982V222H287.026V222.804C287.434 222.164 288.03 221.844 288.814 221.844C289.622 221.844 290.21 222.184 290.578 222.864C290.994 222.184 291.622 221.844 292.462 221.844ZM301.35 227.244C300.734 227.852 299.986 228.156 299.106 228.156C298.226 228.156 297.478 227.852 296.862 227.244C296.254 226.636 295.95 225.888 295.95 225C295.95 224.112 296.254 223.364 296.862 222.756C297.478 222.148 298.226 221.844 299.106 221.844C299.986 221.844 300.734 222.148 301.35 222.756C301.966 223.364 302.274 224.112 302.274 225C302.274 225.888 301.966 226.636 301.35 227.244ZM299.106 227.136C299.706 227.136 300.21 226.932 300.618 226.524C301.026 226.116 301.23 225.608 301.23 225C301.23 224.392 301.026 223.884 300.618 223.476C300.21 223.068 299.706 222.864 299.106 222.864C298.514 222.864 298.014 223.068 297.606 223.476C297.198 223.884 296.994 224.392 296.994 225C296.994 225.608 297.198 226.116 297.606 226.524C298.014 226.932 298.514 227.136 299.106 227.136ZM306.613 221.844C307.317 221.844 307.881 222.068 308.305 222.516C308.729 222.956 308.941 223.556 308.941 224.316V228H307.897V224.376C307.897 223.888 307.765 223.512 307.501 223.248C307.237 222.976 306.873 222.84 306.409 222.84C305.889 222.84 305.469 223.004 305.149 223.332C304.829 223.652 304.669 224.148 304.669 224.82V228H303.625V222H304.669V222.864C305.093 222.184 305.741 221.844 306.613 221.844ZM311.419 223.62C311.419 223.852 311.535 224.04 311.767 224.184C311.999 224.32 312.279 224.432 312.607 224.52C312.935 224.6 313.263 224.696 313.591 224.808C313.919 224.912 314.199 225.096 314.431 225.36C314.663 225.616 314.779 225.948 314.779 226.356C314.779 226.9 314.567 227.336 314.143 227.664C313.727 227.992 313.191 228.156 312.535 228.156C311.951 228.156 311.451 228.028 311.035 227.772C310.619 227.516 310.323 227.176 310.147 226.752L311.047 226.236C311.143 226.524 311.323 226.752 311.587 226.92C311.851 227.088 312.167 227.172 312.535 227.172C312.879 227.172 313.163 227.108 313.387 226.98C313.611 226.844 313.723 226.636 313.723 226.356C313.723 226.124 313.607 225.94 313.375 225.804C313.143 225.66 312.863 225.548 312.535 225.468C312.207 225.38 311.879 225.28 311.551 225.168C311.223 225.056 310.943 224.872 310.711 224.616C310.479 224.36 310.363 224.032 310.363 223.632C310.363 223.112 310.563 222.684 310.963 222.348C311.371 222.012 311.879 221.844 312.487 221.844C312.975 221.844 313.407 221.956 313.783 222.18C314.167 222.396 314.455 222.7 314.647 223.092L313.771 223.584C313.555 223.072 313.127 222.816 312.487 222.816C312.191 222.816 311.939 222.888 311.731 223.032C311.523 223.168 311.419 223.364 311.419 223.62Z" fill="#52525B"/>
<defs>
<linearGradient id="paint0_linear_11_473" x1="151.094" y1="17.0879" x2="173.219" y2="17.0879" gradientUnits="userSpaceOnUse">
<stop stop-color="#485960"/>
<stop offset="1" stop-color="#323E42"/>
</linearGradient>
<linearGradient id="paint1_linear_11_473" x1="145.562" y1="35.0312" x2="178.75" y2="35.0312" gradientUnits="userSpaceOnUse">
<stop stop-color="#FFD48A"/>
<stop offset="1" stop-color="#D89118"/>
</linearGradient>
<linearGradient id="paint2_linear_11_473" x1="158.469" y1="36.8861" x2="165.844" y2="36.8861" gradientUnits="userSpaceOnUse">
<stop stop-color="#485960"/>
<stop offset="1" stop-color="#323E42"/>
</linearGradient>
</defs>
</svg>
